<?xml version="1.0" encoding="utf-8"?>
<!-- Generator: Adobe Illustrator 23.1.0, SVG Export Plug-In . SVG Version: 6.00 Build 0)  -->
<svg version="1.1" id="Layer_1" xmlns="http://www.w3.org/2000/svg" xmlns:xlink="http://www.w3.org/1999/xlink" x="0px" y="0px"
	 viewBox="0 0 100 100" style="enable-background:new 0 0 100 100;" xml:space="preserve">
<style type="text/css">
	.st0{fill:#677F89;}
	.st1{fill:#EEF0F2;}
	.st2{opacity:0.75;}
</style>
<path class="st0" d="M50,8.6C50,8.6,50,8.6,50,8.6l-0.1,12.8c0,0,0,0,0.1,0c15.8,0,28.6,12.8,28.6,28.6S65.8,78.6,50,78.6
	c0,0,0,0-0.1,0v12.8c0,0,0,0,0.1,0c22.8,0,41.4-18.5,41.4-41.4S72.8,8.6,50,8.6z"/>
<path class="st1" d="M22.9,41c3.8-11.3,14.4-19.5,27-19.6V8.6c-18.5,0-34.2,12.3-39.4,29.1L22.9,41z"/>
<g class="st2">
	<path class="st0" d="M49.9,78.5c-15.7,0-28.5-12.8-28.5-28.5c0-3.1,0.5-6.2,1.4-9l-12.4-3.3c-1.2,3.9-1.8,8-1.8,12.2
		c0,22.8,18.5,41.4,41.4,41.4c0,0,0,0-0.1,0V78.5z"/>
	<path class="st0" d="M10.5,37.8c0-0.1,0.1-0.2,0.1-0.3C10.6,37.5,10.5,37.6,10.5,37.8z"/>
</g>
</svg>
