<?xml version="1.0" encoding="utf-8"?>
<!-- Generator: Adobe Illustrator 23.1.0, SVG Export Plug-In . SVG Version: 6.00 Build 0)  -->
<svg version="1.1" id="Layer_1" xmlns="http://www.w3.org/2000/svg" xmlns:xlink="http://www.w3.org/1999/xlink" x="0px" y="0px"
	 viewBox="0 0 360 360" style="enable-background:new 0 0 360 360;" xml:space="preserve">
<g id="icons_2_">
	<g id="exit2_2_">
		<path d="M181.8,147.6c18.1,0,32.9-14.8,32.9-33V48.7c0-18.1-14.8-33-32.9-33s-32.9,14.8-32.9,33v65.9
			C148.8,132.7,163.6,147.6,181.8,147.6z"/>
		<path d="M298.7,63.6L298.7,63.6c-4.9-4.9-9.9-6.6-18.1-6.6c-13.2,0-24.7,11.5-24.7,24.7c0,6.6,3.3,13.2,6.6,18.1l0,0l0,0l0,0
			c21.4,21.4,32.9,49.4,32.9,80.7c0,64.3-51.1,115.3-115.3,115.3S64.8,244.8,64.8,180.5c0-31.3,13.2-61,34.6-80.7l0,0
			c4.9-4.9,8.2-11.5,8.2-18.1c0-13.2-11.5-24.7-24.7-24.7c-6.6,0-13.2,3.3-18.1,6.6l0,0C35.1,93.2,17,134.4,17,180.5
			c0,90.6,74.1,164.8,164.8,164.8s164.8-74.1,164.8-164.8C346.5,134.4,328.4,93.2,298.7,63.6z"/>
	</g>
</g>
</svg>
