<?xml version="1.0" encoding="utf-8"?>
<!-- Generator: Adobe Illustrator 23.1.0, SVG Export Plug-In . SVG Version: 6.00 Build 0)  -->
<svg version="1.1" id="Layer_1" xmlns="http://www.w3.org/2000/svg" xmlns:xlink="http://www.w3.org/1999/xlink" x="0px" y="0px"
	 viewBox="0 0 360 360" style="enable-background:new 0 0 360 360;" xml:space="preserve">
<g>
	<polygon points="50.5,15.7 50.5,84.1 36.8,84.1 36.8,111.5 77.9,111.5 77.9,84.1 77.8,84.1 77.8,43.1 296.8,43.1 296.8,316.8 
		77.8,316.8 77.8,275.8 50.5,275.8 50.5,344.2 324.2,344.2 324.2,15.7 	"/>
	<polygon points="77.9,166.3 77.9,152.6 77.9,125.2 50.5,125.2 50.5,152.6 36.8,152.6 36.8,180 77.9,180 	"/>
	<polygon points="77.9,234.7 77.9,221 77.9,193.6 50.5,193.6 50.5,221 36.8,221 36.8,248.4 77.9,248.4 	"/>
	<path d="M118.8,248.4h27.4c0-22.7,18.4-41.1,41.1-41.1s41.1,18.5,41.1,41.1h27.4c0-23.5-12.1-44.4-30.3-56.7
		c10.2-10,16.6-23.9,16.6-39.2c0-30.2-24.6-54.8-54.8-54.8s-54.8,24.6-54.8,54.8c0,15.3,6.3,29.2,16.5,39.2
		C130.8,204,118.8,224.8,118.8,248.4z M187.3,125.2c15.1,0,27.4,12.3,27.4,27.4S202.4,180,187.3,180c-15.1,0-27.4-12.3-27.4-27.4
		C159.9,137.5,172.2,125.2,187.3,125.2z"/>
</g>
</svg>
