<?xml version="1.0" encoding="utf-8"?>
<!-- Generator: Adobe Illustrator 23.1.0, SVG Export Plug-In . SVG Version: 6.00 Build 0)  -->
<svg version="1.1" id="Layer_1" xmlns="http://www.w3.org/2000/svg" xmlns:xlink="http://www.w3.org/1999/xlink" x="0px" y="0px"
	 viewBox="0 0 360 360" style="enable-background:new 0 0 360 360;" xml:space="preserve">
<g>
	<path d="M330,29.4h-67c0-8.2-5.5-13.7-13.7-13.7s-13.7,5.5-13.7,13.7H126.3c0-8.2-5.5-13.7-13.7-13.7c-8.2,0-13.7,5.5-13.7,13.7H32
		c-8.2,0-15,6.8-15,15v284.3c0,8.2,6.8,15,15,15H330c8.2,0,15-6.8,15-15V44.5C345,36.3,338.2,29.4,330,29.4z M317.7,316.4H44.3
		V125.1h273.3V316.4z M317.7,111.4H44.3V56.8H99v13.7c0,8.2,5.5,13.7,13.7,13.7c8.2,0,13.7-5.5,13.7-13.7V56.8h109.3v13.7
		c0,8.2,5.5,13.7,13.7,13.7S263,78.6,263,70.4V56.8h54.7V111.4z"/>
	<path d="M157.8,257.7c5.5,5.5,13.7,5.5,19.1,0l56-56c5.5-5.5,5.5-13.7,0-19.1c-5.5-5.5-13.7-5.5-19.1,0l-46.5,47.8l-19.1-19.1
		c-5.5-5.5-13.7-5.5-19.1,0c-5.5,5.5-5.5,13.7,0,19.1L157.8,257.7z"/>
</g>
</svg>
