<?xml version="1.0" encoding="utf-8"?>
<!-- Generator: Adobe Illustrator 23.1.0, SVG Export Plug-In . SVG Version: 6.00 Build 0)  -->
<svg version="1.1" id="Layer_1" xmlns="http://www.w3.org/2000/svg" xmlns:xlink="http://www.w3.org/1999/xlink" x="0px" y="0px"
	 viewBox="0 0 360 360" style="enable-background:new 0 0 360 360;" xml:space="preserve">
<g>
	<path d="M131.2,179.1c45.7,0.2,82.7-36.5,82.7-81.9c0.1-45.2-36.6-81.9-81.8-82C86.6,15,49.8,51.7,49.7,97
		C49.7,142,86.3,178.9,131.2,179.1z M132,47.8c27.2,0.1,49.2,22.3,49.1,49.6c-0.1,27-22.2,48.9-49.4,48.8
		c-27.3-0.1-49.2-22.1-49.1-49.5C82.7,69.8,105,47.7,132,47.8z"/>
	<path d="M169.4,212.2c-12.5-0.4-25.1-0.1-37.7-0.1c0-0.2,0-0.4,0-0.6c-15.2,0.5-30.6-0.2-45.6,1.6c-36.9,4.4-67.5,38.4-68.8,75.5
		c-0.5,12.8-0.2,25.6-0.2,38.4c0,1.5,0.3,3.1,0.7,4.5c2.4,7.9,9.8,12.4,18.2,11.3c7.6-1,13.5-7.7,13.6-15.7
		c0.2-10.8,0-21.5,0.1-32.3c0.1-28.6,21.6-50.1,50.1-50.2c21.4-0.1,42.8-0.3,64.2,0.1c6,0.1,12.3,1.2,18,3.2
		c19.2,6.9,31.6,25.1,31.9,45.9c0.1,11.3-0.1,22.5,0.1,33.8c0.2,8.5,7.2,15.1,15.7,15.3c8.6,0.2,16.5-6,16.6-14.2
		c0.2-15.7,0.9-31.6-0.9-47.2C241.2,244,207.2,213.5,169.4,212.2z"/>
	<path d="M230.6,47.9c27.1,1,48.1,21.3,48.8,47.1c0.8,28-20.1,50.2-48.1,51.2c-10.6,0.4-17.6,7.2-17.4,16.9
		c0.2,9.6,7.6,16.1,18.3,15.9c43.7-0.5,79.7-37.2,80.6-81.5c-0.9-6.3-1.3-12.7-2.7-19c-8-36.6-41.7-63.6-79.1-63.5
		c-5.3,0-9.8,1.7-13.3,5.8c-4.3,5.2-5.2,11.1-2.5,17.3C218.2,44.6,223.5,47.6,230.6,47.9z"/>
	<path d="M345,307.3c0-4.6,0-9.2,0-13.8c0-12.2-2.4-24-8-34.9c-15.3-29.7-39.6-45.4-73.1-46.6c-8.5-0.3-15,4.8-16.8,12.3
		c-2.5,10.6,4.8,19.9,16.1,20.3c28.8,1.2,49,22.1,49.1,50.9c0,10.1,0,20.2,0,30.4c0.1,10.1,6.8,17.1,16.2,17.2
		c9.6,0.1,16.4-7.1,16.4-17.3C345,319.6,345,313.4,345,307.3z"/>
</g>
</svg>
