<?xml version="1.0" encoding="utf-8"?>
<!-- Generator: Adobe Illustrator 23.1.0, SVG Export Plug-In . SVG Version: 6.00 Build 0)  -->
<svg version="1.1" id="Layer_1" xmlns="http://www.w3.org/2000/svg" xmlns:xlink="http://www.w3.org/1999/xlink" x="0px" y="0px"
	 viewBox="0 0 360 360" style="enable-background:new 0 0 360 360;" xml:space="preserve">
<path d="M183.1,13c-48,0-93.6,21.1-124.7,57.7L35.7,50.5c-4.9-4.3-11.9-5.3-17.8-2.7c-6,2.7-9.8,8.6-9.8,15.2v66.7
	c0,9.2,7.5,16.7,16.7,16.7h75c6.9,0,13-4.3,15.5-10.7c2.5-6.5,0.7-13.9-4.5-18.5L83.2,92.7c24.9-29.4,61.5-46.4,100-46.4
	c73.7,0,133.4,59.7,133.4,133.4s-59.7,133.4-133.4,133.4c-56.5,0-106.9-35.6-125.8-88.9c-3-8.7-12.6-13.3-21.3-10.3
	c-8.7,3-13.3,12.6-10.3,21.3C56.7,322.1,151.9,367.6,238.7,337s132.4-125.9,101.7-212.7C316.9,57.5,253.8,13,183.1,13z"/>
<path d="M231.3,242c-3,0-5.9-1-8.3-2.8l-55.3-41.5c-3.5-2.6-5.5-6.7-5.5-11.1v-55.3c0-7.6,6.2-13.8,13.8-13.8s13.8,6.2,13.8,13.8
	v48.4l49.7,37.3c6.1,4.6,7.3,13.2,2.8,19.3C239.8,239.9,235.7,242,231.3,242z"/>
</svg>
