<?xml version="1.0" encoding="utf-8"?>
<!-- Generator: Adobe Illustrator 23.1.0, SVG Export Plug-In . SVG Version: 6.00 Build 0)  -->
<svg version="1.1" id="Layer_1" xmlns="http://www.w3.org/2000/svg" xmlns:xlink="http://www.w3.org/1999/xlink" x="0px" y="0px"
	 viewBox="0 0 360 360" style="enable-background:new 0 0 360 360;" xml:space="preserve">
<g>
	<path d="M330,23.3h-6h-60.7H33.1c-8.2,0-15,6.8-15,15v283.3c0,8.2,6.8,15,15,15H330c8.2,0,15-6.8,15-15V38.3
		C345,30.1,338.2,23.3,330,23.3z M319.6,309.4H39.4V47.9h280.2V309.4z"/>
	<g>
		<path d="M147.7,174.7l-5.6,2.1c-3.4-6.1-9.8-9.1-16-9.1c-8.4,0-19.1,6.9-19.1,21.5c0,14.5,10.7,21.4,19.1,21.4
			c6.2,0,12.6-3,16-9.1l5.6,2.1c-4.6,8.5-13.4,12.6-21.5,12.6c-11.4,0-25.5-9.1-25.5-26.9c0-17.9,14.1-27,25.5-27
			C134.4,162.1,143.2,166.2,147.7,174.7z"/>
		<path d="M172.6,168v37.6c0,3.2,1.4,5,4.2,5c2.6,0,4.5-0.7,6.7-1.8v5.4c-2.2,1.2-4.5,1.9-8.3,1.9c-4.5,0-8.8-2.3-8.8-9.6V168h-7.1
			v-5.3h7.1v-9.1h6.3v9.1h11v5.3H172.6z"/>
		<path d="M228.1,162.4v5.8c-1.2-0.2-2.2-0.2-3.6-0.2c-10.2,0.1-18.1,7-19.9,19.5v27.9h-6.4v-52.7h6.4v15.9
			c1.1-8.3,8.4-16.4,20-16.4C225.9,162.2,226.9,162.3,228.1,162.4z"/>
		<path d="M248.2,215.4h-6.4v-70.9h6.4V215.4z"/>
	</g>
</g>
</svg>
