<?xml version="1.0" encoding="utf-8"?>
<!-- Generator: Adobe Illustrator 23.1.0, SVG Export Plug-In . SVG Version: 6.00 Build 0)  -->
<svg version="1.1" id="Layer_1" xmlns="http://www.w3.org/2000/svg" xmlns:xlink="http://www.w3.org/1999/xlink" x="0px" y="0px"
	 viewBox="0 0 360 360" style="enable-background:new 0 0 360 360;" xml:space="preserve">

<path class="st0" d="M299.9,105c-13.2,13.5-34.9,13.7-48.4,0.5C238,92.3,237.8,70.6,251,57.1l-14.5-14.2c0,0,0,0,0,0l-29.4-28.7
	l-191,195.4l29.3,28.6l14.8,14.5c13.1-13.4,34.6-13.6,48-0.6c13.4,13.1,13.6,34.6,0.5,48l14.8,14.5l29.3,28.6l191-195.4L299.9,105z
	 M247.8,207l-95.4,97.7l-15.2-14.8c4.6-18.3-0.1-38.3-14.6-52.4c-14.4-14.1-34.6-18.4-52.7-13.3l-15.2-14.8l95.4-97.6l19.5,19.1
	L184,116L164.4,97L207.4,53l15.3,15c-4.5,18.2,0.3,38.1,14.6,52.1c14.4,14,34.5,18.4,52.5,13.5l15.2,14.8l-42.9,43.9l-18.7-18.3
	L229,188.7L247.8,207z"/>
<rect x="195.8" y="131.4" transform="matrix(0.6988 -0.7153 0.7153 0.6988 -46.6599 193.2021)" width="20.5" height="41.2"/>
</svg>
