<?xml version="1.0" encoding="utf-8"?>
<!-- Generator: Adobe Illustrator 23.1.0, SVG Export Plug-In . SVG Version: 6.00 Build 0)  -->
<svg version="1.1" id="Layer_1" xmlns="http://www.w3.org/2000/svg" xmlns:xlink="http://www.w3.org/1999/xlink" x="0px" y="0px"
	 viewBox="0 0 360 360" style="enable-background:new 0 0 360 360;" xml:space="preserve">
<g>
	<path d="M299.2,344.3h-133c-24.4,0-44.3-19.9-44.3-44.3V167c0-24.4,19.9-44.3,44.3-44.3h133c24.4,0,44.3,19.9,44.3,44.3v133
		C343.5,324.4,323.6,344.3,299.2,344.3z M166.2,152.2c-8.2,0-14.8,6.6-14.8,14.8v133c0,8.2,6.6,14.8,14.8,14.8h133
		c8.2,0,14.8-6.6,14.8-14.8V167c0-8.2-6.6-14.8-14.8-14.8H166.2z"/>
	<path d="M77.6,240.9H62.8c-24.4,0-44.3-19.9-44.3-44.3v-133c0-24.4,19.9-44.3,44.3-44.3h133c24.4,0,44.3,19.9,44.3,44.3v14.8
		c0,8.2-6.6,14.8-14.8,14.8c-8.2,0-14.8-6.6-14.8-14.8V63.6c0-8.2-6.6-14.8-14.8-14.8h-133c-8.2,0-14.8,6.6-14.8,14.8v133
		c0,8.2,6.6,14.8,14.8,14.8h14.8c8.2,0,14.8,6.6,14.8,14.8C92.4,234.3,85.8,240.9,77.6,240.9z"/>
</g>
</svg>
