<?xml version="1.0" encoding="utf-8"?>
<!-- Generator: Adobe Illustrator 23.1.0, SVG Export Plug-In . SVG Version: 6.00 Build 0)  -->
<svg version="1.1" id="Layer_1" xmlns="http://www.w3.org/2000/svg" xmlns:xlink="http://www.w3.org/1999/xlink" x="0px" y="0px"
	 viewBox="0 0 360 360" style="enable-background:new 0 0 360 360;" xml:space="preserve">
<g>
	<path d="M255.1,300.1v30.1c0,4.1-1.5,7.6-4.5,10.6c-3,3-6.5,4.5-10.6,4.5H119.7c-4.1,0-7.6-1.5-10.6-4.5c-3-3-4.5-6.5-4.5-10.6
		v-30.1c0-4.1,1.5-7.6,4.5-10.6c3-3,6.5-4.5,10.6-4.5h15v-90.3h-15c-4.1,0-7.6-1.5-10.6-4.5c-3-3-4.5-6.5-4.5-10.6v-30.1
		c0-4.1,1.5-7.6,4.5-10.6c3-3,6.5-4.5,10.6-4.5H210c4.1,0,7.6,1.5,10.6,4.5c3,3,4.5,6.5,4.5,10.6v135.4h15c4.1,0,7.6,1.5,10.6,4.5
		C253.6,292.5,255.1,296.1,255.1,300.1z M225,29.3v45.1c0,4.1-1.5,7.6-4.5,10.6s-6.5,4.5-10.6,4.5h-60.2c-4.1,0-7.6-1.5-10.6-4.5
		s-4.5-6.5-4.5-10.6V29.3c0-4.1,1.5-7.6,4.5-10.6s6.5-4.5,10.6-4.5H210c4.1,0,7.6,1.5,10.6,4.5S225,25.2,225,29.3z"/>
</g>
</svg>
