<?xml version="1.0" encoding="utf-8"?>
<!-- Generator: Adobe Illustrator 23.1.0, SVG Export Plug-In . SVG Version: 6.00 Build 0)  -->
<svg version="1.1" id="Layer_1" xmlns="http://www.w3.org/2000/svg" xmlns:xlink="http://www.w3.org/1999/xlink" x="0px" y="0px"
	 viewBox="0 0 100 100" style="enable-background:new 0 0 100 100;" xml:space="preserve">
<style type="text/css">
	.st0{opacity:0.75;}
	.st1{fill:#677F89;}
	.st2{opacity:0.75;fill:#677F89;}
	.st3{fill:#EEF0F2;}
	.st4{fill:#D3DADD;}
	.st5{fill:#D1DDF1;}
</style>
<g>
	<g class="st0">
		<path class="st1" d="M18,29.8l-0.1-1.1c0.2,0,0.4,0,0.6,0l0,1.1C18.3,29.8,18.1,29.8,18,29.8z"/>
		<path class="st1" d="M19.5,81.2c-0.1,0-0.2,0-0.3,0l0-1.1c0.4,0,0.7,0,1.1,0l0.1,1.1C20.1,81.1,19.8,81.2,19.5,81.2z M18,81.1
			c-0.4,0-0.8-0.1-1.2-0.2l0.2-1.1c0.4,0.1,0.7,0.1,1.1,0.2L18,81.1z M21.6,81l-0.1-1.1c0.4,0,0.7-0.1,1.1-0.2l0.2,1.1
			C22.3,80.9,21.9,81,21.6,81z M15.7,80.6c-0.4-0.1-0.8-0.2-1.1-0.4l0.4-1.1c0.3,0.1,0.7,0.2,1,0.3L15.7,80.6z M23.9,80.5l-0.3-1.1
			c0.3-0.1,0.7-0.2,1.1-0.3l0.4,1.1C24.6,80.3,24.2,80.4,23.9,80.5z M13.5,79.8c-0.4-0.2-0.7-0.4-1-0.6l0.6-1c0.3,0.2,0.6,0.4,1,0.5
			L13.5,79.8z M26.1,79.8l-0.4-1.1c0.3-0.1,0.7-0.3,1-0.4l0.4,1C26.8,79.5,26.4,79.7,26.1,79.8z M28.2,78.9l-0.4-1
			c0.3-0.1,0.7-0.3,1-0.4l0.4,1C28.9,78.6,28.5,78.8,28.2,78.9z M11.4,78.6c-0.3-0.2-0.6-0.5-0.9-0.7l0.7-0.9
			c0.3,0.2,0.6,0.5,0.9,0.7L11.4,78.6z M30.3,78l-0.4-1c0.3-0.1,0.7-0.3,1-0.4l0.4,1C31,77.7,30.6,77.9,30.3,78z M32.3,77.2
			l-0.4-1.1c0.4-0.1,0.7-0.3,1.1-0.4l0.4,1.1C33,76.9,32.7,77,32.3,77.2z M9.6,77.1c-0.3-0.3-0.6-0.6-0.8-0.9l0.8-0.8
			c0.2,0.3,0.5,0.5,0.8,0.8L9.6,77.1z M34.4,76.4l-0.4-1.1c0.4-0.1,0.7-0.2,1.1-0.4l0.3,1.1C35.2,76.1,34.8,76.3,34.4,76.4z
			 M36.6,75.7l-0.3-1.1c0.4-0.1,0.8-0.2,1.1-0.3l0.2,1.1C37.3,75.5,36.9,75.6,36.6,75.7z M8.1,75.4c-0.2-0.3-0.5-0.6-0.7-1l0.9-0.6
			c0.2,0.3,0.4,0.6,0.6,0.9L8.1,75.4z M38.7,75.2l-0.2-1.1c0.4-0.1,0.8-0.1,1.2-0.2l0.1,1.1C39.5,75.1,39.1,75.2,38.7,75.2z
			 M44.2,75.2c-0.4-0.1-0.7-0.1-1.1-0.1l0.1-1.1c0.4,0,0.8,0.1,1.2,0.1L44.2,75.2z M40.9,75l-0.1-1.1c0.4,0,0.8,0,1.2,0l0,1.1
			C41.7,75,41.3,75,40.9,75z M6.8,73.4c-0.2-0.3-0.4-0.7-0.5-1l1-0.5c0.2,0.3,0.3,0.7,0.5,1L6.8,73.4z M5.8,71.3
			c-0.1-0.4-0.3-0.7-0.4-1.1l1.1-0.4c0.1,0.3,0.2,0.7,0.4,1L5.8,71.3z M5,69.1c-0.1-0.4-0.2-0.8-0.3-1.1l1.1-0.2
			c0.1,0.4,0.2,0.7,0.3,1.1L5,69.1z M4.5,66.8c-0.1-0.4-0.1-0.8-0.1-1.2l1.1-0.1c0,0.4,0.1,0.7,0.1,1.1L4.5,66.8z M4.3,64.5
			c0-0.3,0-0.6,0-1l0-0.2l1.1,0l0,0.2c0,0.3,0,0.6,0,0.9L4.3,64.5z M5.5,62.2l-1.1-0.1l0-0.3c0-0.3,0-0.6,0.1-0.9l1.1,0.1
			c0,0.3-0.1,0.6-0.1,0.8L5.5,62.2z M5.7,60l-1.1-0.2c0.1-0.4,0.1-0.8,0.2-1.1l1.1,0.2C5.8,59.3,5.7,59.6,5.7,60z M6.1,57.8L5,57.6
			c0.1-0.4,0.2-0.8,0.3-1.1l1.1,0.3C6.2,57.1,6.2,57.5,6.1,57.8z M6.7,55.7l-1.1-0.4C5.7,55,5.9,54.6,6,54.2l1.1,0.4
			C6.9,55,6.8,55.4,6.7,55.7z M7.5,53.7l-1-0.5c0.2-0.3,0.3-0.7,0.5-1l1,0.5C7.8,53,7.7,53.3,7.5,53.7z M8.5,51.7l-1-0.6
			c0.2-0.3,0.4-0.7,0.6-1l1,0.6C8.9,51.1,8.7,51.4,8.5,51.7z M15.2,50.2c-0.1,0-0.3,0-0.4,0l0.1-1.1c0.3,0,0.7,0,1,0l0.1,1.1
			C15.7,50.2,15.4,50.2,15.2,50.2z M13.5,50c-0.4-0.1-0.8-0.2-1.2-0.4l0.5-1c0.3,0.1,0.6,0.2,1,0.3L13.5,50z M17.2,49.9l-0.3-1.1
			c0.3-0.1,0.7-0.2,1-0.3l0.5,1C18,49.7,17.6,49.8,17.2,49.9z M9.7,49.8l-0.9-0.6c0.2-0.3,0.4-0.6,0.6-0.9l0.9,0.7
			C10.1,49.2,9.9,49.5,9.7,49.8z M11.3,49c-0.3-0.2-0.7-0.5-0.9-0.8l0.4-0.4l-0.6-0.5c0.2-0.3,0.5-0.6,0.8-0.9l0.8,0.8
			c-0.1,0.1-0.3,0.3-0.4,0.4c0.2,0.2,0.4,0.3,0.6,0.5L11.3,49z M19.4,48.9L18.8,48c0.3-0.2,0.5-0.4,0.7-0.7l0.9,0.7
			C20.1,48.4,19.8,48.7,19.4,48.9z M9.6,47.2c-0.2-0.3-0.4-0.7-0.6-1.1l1-0.5c0.1,0.3,0.3,0.6,0.5,0.9L9.6,47.2z M21,46.8l-1.1-0.2
			c0-0.1,0-0.1,0-0.2c0-0.2,0-0.4-0.1-0.5l1-0.5c0.2,0.3,0.3,0.7,0.3,1.1C21,46.5,21,46.6,21,46.8z M12.5,46.5l-0.7-0.9
			c0.3-0.2,0.6-0.5,1-0.7l0.6,1C13.1,46.1,12.8,46.3,12.5,46.5z M14.3,45.4l-0.5-1c0.4-0.2,0.7-0.3,1.1-0.4l0.3,1.1
			C15,45.1,14.7,45.2,14.3,45.4z M19.2,45.2c-0.2-0.2-0.5-0.3-0.8-0.4l0.3-1.1c0.5,0.1,0.9,0.3,1.2,0.6L19.2,45.2z M8.6,45
			c-0.1-0.4-0.2-0.8-0.3-1.2l1.1-0.2c0.1,0.4,0.1,0.7,0.2,1L8.6,45z M16.3,44.7l-0.2-1.1c0.4-0.1,0.8-0.1,1.1-0.1l0.1,0l0,1.1
			l-0.1,0C17,44.6,16.7,44.7,16.3,44.7z M8.1,42.7c0-0.4-0.1-0.8-0.1-1.2l1.1-0.1c0,0.4,0,0.7,0.1,1.1L8.1,42.7z M9.1,40.4l-1.1,0
			c0-0.4,0-0.8,0.1-1.2l1.1,0.1C9.2,39.6,9.2,40,9.1,40.4z M9.4,38.2L8.3,38c0.1-0.4,0.2-0.8,0.3-1.2l1.1,0.3
			C9.5,37.5,9.4,37.9,9.4,38.2z M10,36.1l-1.1-0.4c0.1-0.4,0.3-0.7,0.5-1.1l1,0.5C10.3,35.5,10.1,35.8,10,36.1z M11,34.2L10,33.6
			c0.2-0.3,0.5-0.7,0.7-1l0.9,0.7C11.4,33.6,11.2,33.9,11,34.2z M12.3,32.6l-0.8-0.8c0.3-0.3,0.6-0.5,0.9-0.8l0.7,0.9
			C12.9,32.1,12.6,32.3,12.3,32.6z M14,31.2l-0.6-1c0.3-0.2,0.7-0.4,1-0.6l0.5,1C14.6,30.8,14.3,31,14,31.2z M15.9,30.3l-0.4-1.1
			c0.4-0.1,0.8-0.3,1.2-0.3l0.3,1.1C16.6,30,16.3,30.1,15.9,30.3z"/>
		<path class="st1" d="M45.9,75.6c-0.2,0-0.4-0.1-0.5-0.1l0.3-1.1c0.2,0,0.4,0.1,0.6,0.1L45.9,75.6z"/>
	</g>
	<path class="st2" d="M29.4,36.3h-1.9c-1.2,0-2.1-1-2.1-2.1v-0.9C24,32.7,22.7,32,21.7,31l-0.8,0.5c-0.5,0.3-1.1,0.4-1.6,0.2
		c-0.6-0.1-1-0.5-1.3-1L17,29.1c-0.6-1-0.2-2.3,0.8-2.9l0.8-0.5c-0.2-0.7-0.2-1.4-0.2-2.1c0-0.7,0.1-1.4,0.2-2.1L17.8,21
		c-1-0.6-1.4-1.9-0.8-2.9l0.9-1.6c0.3-0.5,0.8-0.9,1.3-1c0.6-0.1,1.1-0.1,1.6,0.2l0.8,0.5c1.1-1,2.3-1.7,3.7-2.1V13
		c0-1.2,1-2.1,2.1-2.1h1.9c1.2,0,2.1,1,2.1,2.1v0.9c1.4,0.4,2.6,1.2,3.7,2.1l0.8-0.5c1-0.6,2.3-0.2,2.9,0.8l0.9,1.6
		c0.3,0.5,0.4,1.1,0.2,1.6c-0.1,0.6-0.5,1-1,1.3l-0.8,0.5c0.2,0.7,0.2,1.4,0.2,2.1c0,0.7-0.1,1.4-0.2,2.1l0.8,0.5
		c0.5,0.3,0.9,0.8,1,1.3c0.1,0.6,0.1,1.1-0.2,1.6L39,30.7c-0.6,1-1.9,1.4-2.9,0.8L35.2,31c-1.1,1-2.3,1.7-3.7,2.1v0.9
		C31.5,35.3,30.6,36.3,29.4,36.3z M27.6,34h1.6v-0.9c0-0.9,0.6-1.8,1.5-2.1c1.1-0.3,2.1-0.9,3-1.7c0.7-0.6,1.7-0.8,2.5-0.3l0.8,0.5
		l0.8-1.4l-0.8-0.5c-0.8-0.5-1.2-1.4-1-2.3c0.1-0.6,0.2-1.1,0.2-1.7s-0.1-1.2-0.2-1.7c-0.2-0.9,0.2-1.9,1-2.3l0.8-0.5l-0.8-1.4
		l-0.8,0.5c-0.8,0.5-1.8,0.4-2.5-0.3c-0.8-0.8-1.9-1.4-3-1.7c-0.9-0.3-1.5-1.1-1.5-2.1v-0.9h-1.6V14c0,0.9-0.6,1.8-1.5,2.1
		c-1.1,0.3-2.1,0.9-3,1.7c-0.7,0.6-1.7,0.8-2.5,0.3l-0.8-0.5L19,19.1l0.8,0.5c0.8,0.5,1.2,1.4,1,2.3c-0.1,0.6-0.2,1.1-0.2,1.7
		c0,0.6,0.1,1.2,0.2,1.7c0.2,0.9-0.2,1.9-1,2.3L19,28.1l0.8,1.4l0.8-0.5c0.8-0.5,1.8-0.4,2.5,0.3c0.8,0.8,1.9,1.4,3,1.7
		c0.9,0.3,1.5,1.1,1.5,2.1V34z M28.5,29.3c-3.2,0-5.7-2.6-5.7-5.7c0-3.2,2.6-5.7,5.7-5.7c3.2,0,5.7,2.6,5.7,5.7
		C34.2,26.7,31.6,29.3,28.5,29.3z M28.5,20.1c-1.9,0-3.5,1.6-3.5,3.5c0,1.9,1.6,3.5,3.5,3.5c1.9,0,3.5-1.6,3.5-3.5
		C31.9,21.7,30.4,20.1,28.5,20.1z"/>
	<g class="st0">
		<path class="st1" d="M35.1,30.7c-0.2-0.1-0.4-0.2-0.5-0.3l0.6-1c0.1,0.1,0.3,0.2,0.5,0.3L35.1,30.7z"/>
		<path class="st1" d="M81.6,51.2l-1-0.5c0.2-0.4,0.4-0.7,0.6-1.1l0.9,0.7C81.9,50.6,81.7,50.9,81.6,51.2z M82.8,49.6L82,48.7
			c0.3-0.3,0.6-0.5,0.9-0.8l0.7,0.9C83.3,49.1,83.1,49.3,82.8,49.6z M84.5,48.3l-0.6-1c0.3-0.2,0.6-0.4,1-0.6l0.5,1
			C85.1,47.9,84.8,48.1,84.5,48.3z M86.5,47.2l-0.5-1c0.3-0.2,0.7-0.3,1-0.5l0.5,1C87.1,46.9,86.8,47.1,86.5,47.2z M88.5,46.3
			l-0.5-1c0.3-0.2,0.7-0.3,1-0.5l0.5,1C89.2,46,88.8,46.1,88.5,46.3z M90.5,45.3l-0.5-1c0.3-0.2,0.7-0.3,1-0.5l0.5,1
			C91.2,45,90.9,45.1,90.5,45.3z M92.6,44.2l-0.6-1c0.3-0.2,0.6-0.4,0.9-0.6l0.7,0.9C93.2,43.8,92.9,44,92.6,44.2z M94.4,42.7
			l-0.8-0.8c0.2-0.3,0.4-0.5,0.6-0.8l1,0.5C95,42,94.7,42.4,94.4,42.7z M95.6,40.5l-1.1-0.2c0.1-0.3,0.1-0.5,0.1-0.8
			c0-0.1,0-0.1,0-0.2l1.1-0.1c0,0.1,0,0.2,0,0.3C95.7,39.8,95.7,40.2,95.6,40.5z M94.4,38.3c-0.1-0.3-0.2-0.6-0.4-0.9l1-0.6
			c0.2,0.4,0.4,0.7,0.5,1.2L94.4,38.3z M84,36.9l0-1.1c0.3,0,0.7,0,1-0.1l0.2,1.1C84.8,36.9,84.4,36.9,84,36.9z M82.8,36.8
			c-0.2,0-0.4-0.1-0.6-0.1c-0.2-0.1-0.4-0.2-0.6-0.2l0.5-1c0.2,0.1,0.3,0.1,0.5,0.2c0.1,0,0.3,0.1,0.4,0.1L82.8,36.8z M93.4,36.7
			c-0.1-0.1-0.1-0.1-0.2-0.2c-0.2-0.1-0.4-0.2-0.6-0.3l0.5-1c0.3,0.1,0.5,0.3,0.8,0.5c0.1,0.1,0.2,0.2,0.3,0.3L93.4,36.7z
			 M86.4,36.6l-0.2-1.1c0.4-0.1,0.7-0.2,1.1-0.3l0.3,1.1C87.1,36.4,86.7,36.5,86.4,36.6z M88.6,36.1l-0.2-1.1
			c0.4-0.1,0.8-0.2,1.2-0.2l0.1,1.1C89.3,35.9,88.9,36,88.6,36.1z M91.7,35.9c-0.3-0.1-0.6-0.1-1-0.1l0,0v-1.1l0,0c0,0,0,0,0,0
			c0.4,0,0.8,0,1.2,0.1L91.7,35.9z M80.5,35.7c-0.3-0.3-0.6-0.6-0.9-0.9l0.9-0.7c0.2,0.3,0.4,0.5,0.7,0.7L80.5,35.7z M79,33.8
			c-0.2-0.3-0.3-0.7-0.5-1.1l1.1-0.4c0.1,0.3,0.3,0.7,0.4,1L79,33.8z M41.9,32.4c-0.4,0-0.8,0-1.2-0.1l0.1-1.1
			c0.4,0,0.7,0.1,1.1,0.1L41.9,32.4z M43,32.3l-0.1-1.1c0.4,0,0.7-0.1,1-0.2l0.3,1.1C43.9,32.2,43.5,32.2,43,32.3z M39.5,32.1
			c-0.4-0.1-0.8-0.1-1.1-0.2l0.3-1.1c0.4,0.1,0.7,0.2,1.1,0.2L39.5,32.1z M45.4,31.6l-0.5-1c0.3-0.1,0.5-0.3,0.7-0.5l0.1-0.1
			l0.8,0.8L46.3,31C46.1,31.2,45.7,31.4,45.4,31.6z M37.3,31.6c-0.4-0.1-0.7-0.3-1.1-0.4l0.4-1.1c0.3,0.1,0.7,0.3,1,0.4L37.3,31.6z
			 M78.2,31.5c-0.1-0.4-0.1-0.8-0.2-1.2l1.1-0.1c0,0.4,0.1,0.7,0.1,1L78.2,31.5z M47.3,30l-0.9-0.7c0.2-0.3,0.4-0.6,0.5-0.9l1,0.5
			C47.7,29.3,47.5,29.7,47.3,30z M79.2,29.2L78,29.1c0-0.2,0-0.3,0-0.5c0-0.2,0.1-0.5,0.1-0.7l1.1,0.2c0,0.2-0.1,0.4-0.1,0.6
			C79.2,28.9,79.2,29.1,79.2,29.2z M48.4,27.8l-1.1-0.3c0.1-0.3,0.2-0.7,0.2-1l1.1,0.2C48.6,27.1,48.5,27.5,48.4,27.8z M79.5,27.1
			l-1.1-0.3c0.1-0.4,0.2-0.7,0.3-1.1l1.1,0.3C79.7,26.4,79.6,26.7,79.5,27.1z M48.8,25.5l-1.1,0c0-0.1,0-0.2,0-0.4
			c0-0.2,0-0.5,0-0.7l1.1-0.1c0,0.3,0,0.5,0,0.8C48.8,25.2,48.8,25.3,48.8,25.5z M80.1,25L79,24.6c0.1-0.4,0.3-0.7,0.4-1.1l1.1,0.4
			C80.4,24.3,80.2,24.6,80.1,25z M46.3,23.8c-0.4,0-0.8-0.1-1.2-0.1l0.3-1.1c0.3,0.1,0.6,0.1,1,0.1L46.3,23.8z M47.6,23.7l-0.1-0.3
			l0,0c-0.1-0.3-0.2-0.7-0.3-1l1.1-0.4c0.1,0.2,0.1,0.5,0.2,0.7l0.3,0.7C48.4,23.5,48,23.6,47.6,23.7z M43.9,23.2
			c-0.3-0.2-0.7-0.4-0.9-0.7c0,0-0.1-0.1-0.1-0.1l0.8-0.8l0.1,0.1c0.2,0.2,0.4,0.4,0.7,0.5L43.9,23.2z M80.9,22.9l-1.1-0.4
			c0.1-0.4,0.3-0.7,0.4-1l1,0.4C81.2,22.2,81,22.5,80.9,22.9z M49.8,22.8l-0.6-1c0.1,0,0.2-0.1,0.2-0.1c0.2-0.1,0.5-0.3,0.7-0.4
			l0.6,0.9c-0.2,0.2-0.5,0.3-0.7,0.5C50,22.7,49.9,22.8,49.8,22.8z M51.8,21.5l-0.6-0.9c0.3-0.2,0.6-0.4,0.9-0.6l0.6,0.9
			C52.4,21.1,52.1,21.3,51.8,21.5z M46.8,21.3c-0.2-0.3-0.3-0.6-0.5-0.9l0.9-0.6c0.2,0.3,0.4,0.7,0.6,1L46.8,21.3z M42.2,21.3
			c-0.1-0.4-0.2-0.8-0.2-1.1c0-0.1,0-0.2,0-0.2l1.1,0.1c0,0,0,0.1,0,0.1c0,0.2,0,0.5,0.1,0.7L42.2,21.3z M81.8,20.8l-1-0.4l0.2-0.4
			c0.1-0.2,0.2-0.4,0.2-0.6l1.1,0.4c-0.1,0.2-0.2,0.5-0.3,0.7L81.8,20.8z M53.6,20.3L53,19.3l0.9-0.6l0.7,0.9L53.6,20.3z M45.6,19.7
			c-0.3-0.2-0.5-0.4-0.8-0.5l0.4-1c0.4,0.2,0.8,0.4,1.1,0.7L45.6,19.7z M43.4,19.3l-0.8-0.8c0,0,0.1-0.1,0.1-0.1
			c0.3-0.3,0.8-0.5,1.2-0.5L44,19C43.8,19.1,43.6,19.1,43.4,19.3C43.4,19.3,43.4,19.3,43.4,19.3z M55.4,19L54.8,18
			c0.3-0.2,0.6-0.4,0.9-0.6l0.6,0.9C56.1,18.5,55.8,18.7,55.4,19z M82.5,18.5l-1.1-0.2c0-0.2,0-0.5,0-0.7c0-0.1,0-0.2,0-0.3l1.1-0.1
			c0,0.1,0,0.3,0,0.4C82.5,18,82.5,18.3,82.5,18.5z M57.3,17.7l-0.6-0.9c0.3-0.2,0.6-0.4,0.9-0.6l0.6,0.9
			C57.9,17.3,57.6,17.5,57.3,17.7z M59.1,16.4l-0.6-1c0.3-0.2,0.6-0.4,1-0.6l0.6,1C59.8,16,59.5,16.2,59.1,16.4z M81.2,16.4
			c-0.1-0.3-0.2-0.6-0.4-0.9l1-0.6c0.2,0.4,0.4,0.8,0.5,1.1L81.2,16.4z M61,15.3l-0.6-1c0.3-0.2,0.7-0.4,1-0.6l0.5,1
			C61.7,14.9,61.4,15.1,61,15.3z M80.2,14.7c-0.2-0.3-0.5-0.5-0.7-0.7l0.7-0.9c0.3,0.3,0.6,0.6,0.9,0.8L80.2,14.7z M63,14.2l-0.5-1
			c0.3-0.2,0.7-0.3,1-0.5l0.5,1C63.7,13.9,63.3,14.1,63,14.2z M78.6,13.3c-0.3-0.2-0.6-0.3-0.9-0.5l0.5-1c0.4,0.2,0.7,0.4,1.1,0.6
			L78.6,13.3z M65,13.3l-0.4-1.1c0.4-0.1,0.7-0.3,1.1-0.4L66,13C65.7,13.1,65.4,13.2,65,13.3z M67.1,12.6l-0.3-1.1
			c0.4-0.1,0.7-0.2,1.1-0.3l0.3,1.1C67.8,12.4,67.4,12.5,67.1,12.6z M76.7,12.5c-0.3-0.1-0.7-0.2-1-0.3l0.3-1.1
			c0.4,0.1,0.8,0.2,1.1,0.3L76.7,12.5z M69.2,12.1L69,11c0.4-0.1,0.8-0.1,1.1-0.2l0.1,1.1C69.9,12,69.6,12.1,69.2,12.1z M74.6,12
			c-0.4-0.1-0.7-0.1-1.1-0.1l0.1-1.1c0.4,0,0.8,0.1,1.2,0.1L74.6,12z M71.4,11.9l-0.1-1.1c0.4,0,0.7,0,1.1,0l0.1,0l0,1.1l-0.1,0
			C72.1,11.8,71.7,11.8,71.4,11.9z"/>
		<path class="st1" d="M81.3,52.6h-1.1c0-0.2,0-0.4,0-0.6l1.1,0.2C81.3,52.3,81.3,52.5,81.3,52.6z"/>
	</g>
	<g class="st0">
		<g>
			<g>
				<path class="st3" d="M31.5,71h-6.1c-2.8,0-5-2.2-5-5V54.4c0-2.8,2.2-5,5-5h6.1c2.8,0,5,2.2,5,5v11.6C36.5,68.8,34.2,71,31.5,71z
					"/>
				<path class="st1" d="M34.5,71.2H22.4c-1.2,0-2.1-1-2.1-2.1V51.4c0-1.2,1-2.1,2.1-2.1h12.1c1.2,0,2.1,1,2.1,2.1v17.7
					C36.6,70.3,35.7,71.2,34.5,71.2z M22.4,49.6c-1,0-1.8,0.8-1.8,1.8v17.7c0,1,0.8,1.7,1.8,1.7h12.1c1,0,1.8-0.8,1.8-1.7V51.4
					c0-1-0.8-1.8-1.8-1.8H22.4z"/>
			</g>
			<g>
				<path class="st3" d="M21.8,49.4H35c0.8,0,1.4,0.6,1.4,1.4v18.8c0,0.8-0.6,1.4-1.4,1.4"/>
				<path class="st1" d="M35,71.2v-0.4c0.7,0,1.2-0.6,1.2-1.2V50.9c0-0.7-0.6-1.2-1.2-1.2H21.8v-0.4H35c0.9,0,1.6,0.7,1.6,1.6v18.8
					C36.6,70.5,35.9,71.2,35,71.2z"/>
			</g>
		</g>
	</g>
	<g class="st0">
		<g>
			<g>
				<rect x="23" y="55.2" class="st4" width="9.4" height="0.8"/>
				<path class="st1" d="M32.5,56.2h-9.7V55h9.7V56.2z M23.1,55.8h9v-0.4h-9V55.8z"/>
			</g>
			<g>
				<rect x="23" y="58.2" class="st4" width="9.4" height="0.8"/>
				<path class="st1" d="M32.5,59.2h-9.7V58h9.7V59.2z M23.1,58.8h9v-0.4h-9V58.8z"/>
			</g>
			<g>
				<rect x="23" y="61.2" class="st4" width="9.4" height="0.8"/>
				<path class="st1" d="M32.5,62.1h-9.7V61h9.7V62.1z M23.1,61.7h9v-0.4h-9V61.7z"/>
			</g>
			<g>
				<rect x="23" y="64.1" class="st4" width="9.4" height="0.8"/>
				<path class="st1" d="M32.5,65.1h-9.7v-1.1h9.7V65.1z M23.1,64.7h9v-0.4h-9V64.7z"/>
			</g>
			<g>
				<rect x="23" y="67.1" class="st4" width="9.4" height="0.8"/>
				<path class="st1" d="M32.5,68h-9.7v-1.1h9.7V68z M23.1,67.6h9v-0.4h-9V67.6z"/>
			</g>
		</g>
	</g>
	<g class="st0">
		<path class="st1" d="M26,51.4h-0.4v-0.2h1v0.2h-0.4v1.2H26V51.4z"/>
		<path class="st1" d="M27.9,51.9c0,0.5-0.3,0.7-0.7,0.7c-0.4,0-0.6-0.3-0.6-0.7c0-0.4,0.3-0.7,0.7-0.7
			C27.7,51.2,27.9,51.5,27.9,51.9z M26.9,52c0,0.3,0.2,0.6,0.4,0.6c0.3,0,0.5-0.3,0.5-0.6c0-0.3-0.1-0.6-0.4-0.6
			C27,51.4,26.9,51.6,26.9,52z"/>
		<path class="st1" d="M28.6,51.3c0.1,0,0.2,0,0.4,0c0.3,0,0.4,0.1,0.6,0.2c0.1,0.1,0.2,0.3,0.2,0.5c0,0.2-0.1,0.4-0.2,0.5
			c-0.1,0.1-0.3,0.2-0.6,0.2c-0.1,0-0.2,0-0.3,0V51.3z M28.8,52.5c0,0,0.1,0,0.2,0c0.4,0,0.6-0.2,0.6-0.6c0-0.3-0.2-0.5-0.6-0.5
			c-0.1,0-0.2,0-0.2,0V52.5z"/>
		<path class="st1" d="M31.2,51.9c0,0.5-0.3,0.7-0.7,0.7c-0.4,0-0.6-0.3-0.6-0.7c0-0.4,0.3-0.7,0.7-0.7C31,51.2,31.2,51.5,31.2,51.9
			z M30.1,52c0,0.3,0.2,0.6,0.4,0.6c0.3,0,0.5-0.3,0.5-0.6c0-0.3-0.1-0.6-0.4-0.6C30.3,51.4,30.1,51.6,30.1,52z"/>
	</g>
	<path class="st2" d="M34.4,56.4h-0.8c-0.2,0-0.4-0.2-0.4-0.4v-0.8c0-0.2,0.2-0.4,0.4-0.4h0.8c0.2,0,0.4,0.2,0.4,0.4V56
		C34.8,56.2,34.7,56.4,34.4,56.4z M33.7,54.9c-0.2,0-0.3,0.1-0.3,0.3V56c0,0.2,0.1,0.3,0.3,0.3h0.8c0.2,0,0.3-0.1,0.3-0.3v-0.8
		c0-0.2-0.1-0.3-0.3-0.3H33.7z"/>
	<path class="st2" d="M34.4,59.4h-0.8c-0.2,0-0.4-0.2-0.4-0.4v-0.8c0-0.2,0.2-0.4,0.4-0.4h0.8c0.2,0,0.4,0.2,0.4,0.4V59
		C34.8,59.2,34.7,59.4,34.4,59.4z M33.7,57.9c-0.2,0-0.3,0.1-0.3,0.3V59c0,0.2,0.1,0.3,0.3,0.3h0.8c0.2,0,0.3-0.1,0.3-0.3v-0.8
		c0-0.2-0.1-0.3-0.3-0.3H33.7z"/>
	<path class="st2" d="M34.4,62.3h-0.8c-0.2,0-0.4-0.2-0.4-0.4v-0.8c0-0.2,0.2-0.4,0.4-0.4h0.8c0.2,0,0.4,0.2,0.4,0.4v0.8
		C34.8,62.1,34.7,62.3,34.4,62.3z M33.7,60.8c-0.2,0-0.3,0.1-0.3,0.3v0.8c0,0.2,0.1,0.3,0.3,0.3h0.8c0.2,0,0.3-0.1,0.3-0.3v-0.8
		c0-0.2-0.1-0.3-0.3-0.3H33.7z"/>
	<path class="st2" d="M34.4,65.3h-0.8c-0.2,0-0.4-0.2-0.4-0.4v-0.8c0-0.2,0.2-0.4,0.4-0.4h0.8c0.2,0,0.4,0.2,0.4,0.4v0.8
		C34.8,65.1,34.7,65.3,34.4,65.3z M33.7,63.8c-0.2,0-0.3,0.1-0.3,0.3v0.8c0,0.2,0.1,0.3,0.3,0.3h0.8c0.2,0,0.3-0.1,0.3-0.3v-0.8
		c0-0.2-0.1-0.3-0.3-0.3H33.7z"/>
	<path class="st2" d="M34.4,68.2h-0.8c-0.2,0-0.4-0.2-0.4-0.4v-0.8c0-0.2,0.2-0.4,0.4-0.4h0.8c0.2,0,0.4,0.2,0.4,0.4v0.8
		C34.8,68.1,34.7,68.2,34.4,68.2z M33.7,66.8c-0.2,0-0.3,0.1-0.3,0.3v0.8c0,0.2,0.1,0.3,0.3,0.3h0.8c0.2,0,0.3-0.1,0.3-0.3v-0.8
		c0-0.2-0.1-0.3-0.3-0.3H33.7z"/>
	<g class="st0">
		<path class="st1" d="M70.4,89.3H51.3c-3.5,0-6.3-2.8-6.3-6.3V71.2c0-3.5,2.8-6.3,6.3-6.3h19.1c3.5,0,6.3,2.8,6.3,6.3V83
			C76.7,86.5,73.9,89.3,70.4,89.3z M51.3,67.1c-2.2,0-4,1.8-4,4V83c0,2.2,1.8,4,4,4h19.1c2.2,0,4-1.8,4-4V71.2c0-2.2-1.8-4-4-4H51.3
			z"/>
	</g>
	<g class="st0">
		<g>
			<path class="st5" d="M53.2,73.5h-2.1c-0.4,0-0.8-0.4-0.8-0.8v-1c0-0.4,0.4-0.8,0.8-0.8h2.1c0.4,0,0.8,0.4,0.8,0.8v1
				C54,73.2,53.6,73.5,53.2,73.5z"/>
			<path class="st1" d="M53.3,73.7h-2.4c-0.5,0-0.8-0.4-0.8-0.8v-1.3c0-0.5,0.4-0.8,0.8-0.8h2.4c0.5,0,0.8,0.4,0.8,0.8v1.3
				C54.2,73.3,53.8,73.7,53.3,73.7z M50.9,71.1c-0.2,0-0.4,0.2-0.4,0.4v1.3c0,0.2,0.2,0.4,0.4,0.4h2.4c0.2,0,0.4-0.2,0.4-0.4v-1.3
				c0-0.2-0.2-0.4-0.4-0.4H50.9z"/>
		</g>
		<g>
			<path class="st5" d="M57.5,73.5h-2.1c-0.4,0-0.8-0.4-0.8-0.8v-1c0-0.4,0.4-0.8,0.8-0.8h2.1c0.4,0,0.8,0.4,0.8,0.8v1
				C58.3,73.2,58,73.5,57.5,73.5z"/>
			<path class="st1" d="M57.7,73.7h-2.4c-0.5,0-0.8-0.4-0.8-0.8v-1.3c0-0.5,0.4-0.8,0.8-0.8h2.4c0.5,0,0.8,0.4,0.8,0.8v1.3
				C58.5,73.3,58.1,73.7,57.7,73.7z M55.3,71.1c-0.2,0-0.4,0.2-0.4,0.4v1.3c0,0.2,0.2,0.4,0.4,0.4h2.4c0.2,0,0.4-0.2,0.4-0.4v-1.3
				c0-0.2-0.2-0.4-0.4-0.4H55.3z"/>
		</g>
		<g>
			<path class="st5" d="M61.9,73.5h-2.1c-0.4,0-0.8-0.4-0.8-0.8v-1c0-0.4,0.4-0.8,0.8-0.8h2.1c0.4,0,0.8,0.4,0.8,0.8v1
				C62.7,73.2,62.3,73.5,61.9,73.5z"/>
			<path class="st1" d="M62,73.7h-2.4c-0.5,0-0.8-0.4-0.8-0.8v-1.3c0-0.5,0.4-0.8,0.8-0.8H62c0.5,0,0.8,0.4,0.8,0.8v1.3
				C62.9,73.3,62.5,73.7,62,73.7z M59.6,71.1c-0.2,0-0.4,0.2-0.4,0.4v1.3c0,0.2,0.2,0.4,0.4,0.4H62c0.2,0,0.4-0.2,0.4-0.4v-1.3
				c0-0.2-0.2-0.4-0.4-0.4H59.6z"/>
		</g>
		<g>
			<path class="st5" d="M66.2,73.5h-2.1c-0.4,0-0.8-0.4-0.8-0.8v-1c0-0.4,0.4-0.8,0.8-0.8h2.1c0.4,0,0.8,0.4,0.8,0.8v1
				C67,73.2,66.7,73.5,66.2,73.5z"/>
			<path class="st1" d="M66.4,73.7H64c-0.5,0-0.8-0.4-0.8-0.8v-1.3c0-0.5,0.4-0.8,0.8-0.8h2.4c0.5,0,0.8,0.4,0.8,0.8v1.3
				C67.2,73.3,66.8,73.7,66.4,73.7z M64,71.1c-0.2,0-0.4,0.2-0.4,0.4v1.3c0,0.2,0.2,0.4,0.4,0.4h2.4c0.2,0,0.4-0.2,0.4-0.4v-1.3
				c0-0.2-0.2-0.4-0.4-0.4H64z"/>
		</g>
		<g>
			<path class="st5" d="M70.6,73.5h-2.1c-0.4,0-0.8-0.4-0.8-0.8v-1c0-0.4,0.4-0.8,0.8-0.8h2.1c0.4,0,0.8,0.4,0.8,0.8v1
				C71.4,73.2,71,73.5,70.6,73.5z"/>
			<path class="st1" d="M70.7,73.7h-2.4c-0.5,0-0.8-0.4-0.8-0.8v-1.3c0-0.5,0.4-0.8,0.8-0.8h2.4c0.5,0,0.8,0.4,0.8,0.8v1.3
				C71.6,73.3,71.2,73.7,70.7,73.7z M68.3,71.1c-0.2,0-0.4,0.2-0.4,0.4v1.3c0,0.2,0.2,0.4,0.4,0.4h2.4c0.2,0,0.4-0.2,0.4-0.4v-1.3
				c0-0.2-0.2-0.4-0.4-0.4H68.3z"/>
		</g>
	</g>
	<g class="st0">
		<path class="st5" d="M53.2,77.1h-2.1c-0.4,0-0.8-0.4-0.8-0.8v-1c0-0.4,0.4-0.8,0.8-0.8h2.1c0.4,0,0.8,0.4,0.8,0.8v1
			C54,76.8,53.6,77.1,53.2,77.1z"/>
		<path class="st1" d="M53.3,77.3h-2.4c-0.5,0-0.8-0.4-0.8-0.8v-1.3c0-0.5,0.4-0.8,0.8-0.8h2.4c0.5,0,0.8,0.4,0.8,0.8v1.3
			C54.2,76.9,53.8,77.3,53.3,77.3z M50.9,74.7c-0.2,0-0.4,0.2-0.4,0.4v1.3c0,0.2,0.2,0.4,0.4,0.4h2.4c0.2,0,0.4-0.2,0.4-0.4v-1.3
			c0-0.2-0.2-0.4-0.4-0.4H50.9z"/>
	</g>
	<g class="st0">
		<path class="st5" d="M61.9,77.1h-2.1c-0.4,0-0.8-0.4-0.8-0.8v-1c0-0.4,0.4-0.8,0.8-0.8h2.1c0.4,0,0.8,0.4,0.8,0.8v1
			C62.7,76.8,62.3,77.1,61.9,77.1z"/>
		<path class="st1" d="M62,77.3h-2.4c-0.5,0-0.8-0.4-0.8-0.8v-1.3c0-0.5,0.4-0.8,0.8-0.8H62c0.5,0,0.8,0.4,0.8,0.8v1.3
			C62.9,76.9,62.5,77.3,62,77.3z M59.6,74.7c-0.2,0-0.4,0.2-0.4,0.4v1.3c0,0.2,0.2,0.4,0.4,0.4H62c0.2,0,0.4-0.2,0.4-0.4v-1.3
			c0-0.2-0.2-0.4-0.4-0.4H59.6z"/>
	</g>
	<g class="st0">
		<path class="st5" d="M66.2,77.1h-2.1c-0.4,0-0.8-0.4-0.8-0.8v-1c0-0.4,0.4-0.8,0.8-0.8h2.1c0.4,0,0.8,0.4,0.8,0.8v1
			C67,76.8,66.7,77.1,66.2,77.1z"/>
		<path class="st1" d="M66.4,77.3H64c-0.5,0-0.8-0.4-0.8-0.8v-1.3c0-0.5,0.4-0.8,0.8-0.8h2.4c0.5,0,0.8,0.4,0.8,0.8v1.3
			C67.2,76.9,66.8,77.3,66.4,77.3z M64,74.7c-0.2,0-0.4,0.2-0.4,0.4v1.3c0,0.2,0.2,0.4,0.4,0.4h2.4c0.2,0,0.4-0.2,0.4-0.4v-1.3
			c0-0.2-0.2-0.4-0.4-0.4H64z"/>
	</g>
	<g class="st0">
		<path class="st5" d="M70.6,77.1h-2.1c-0.4,0-0.8-0.4-0.8-0.8v-1c0-0.4,0.4-0.8,0.8-0.8h2.1c0.4,0,0.8,0.4,0.8,0.8v1
			C71.4,76.8,71,77.1,70.6,77.1z"/>
		<path class="st1" d="M70.7,77.3h-2.4c-0.5,0-0.8-0.4-0.8-0.8v-1.3c0-0.5,0.4-0.8,0.8-0.8h2.4c0.5,0,0.8,0.4,0.8,0.8v1.3
			C71.6,76.9,71.2,77.3,70.7,77.3z M68.3,74.7c-0.2,0-0.4,0.2-0.4,0.4v1.3c0,0.2,0.2,0.4,0.4,0.4h2.4c0.2,0,0.4-0.2,0.4-0.4v-1.3
			c0-0.2-0.2-0.4-0.4-0.4H68.3z"/>
	</g>
	<g class="st0">
		<path class="st5" d="M53.2,80.7h-2.1c-0.4,0-0.8-0.4-0.8-0.8v-1c0-0.4,0.4-0.8,0.8-0.8h2.1c0.4,0,0.8,0.4,0.8,0.8v1
			C54,80.4,53.6,80.7,53.2,80.7z"/>
		<path class="st1" d="M53.3,80.9h-2.4c-0.5,0-0.8-0.4-0.8-0.8v-1.3c0-0.5,0.4-0.8,0.8-0.8h2.4c0.5,0,0.8,0.4,0.8,0.8v1.3
			C54.2,80.5,53.8,80.9,53.3,80.9z M50.9,78.3c-0.2,0-0.4,0.2-0.4,0.4v1.3c0,0.2,0.2,0.4,0.4,0.4h2.4c0.2,0,0.4-0.2,0.4-0.4v-1.3
			c0-0.2-0.2-0.4-0.4-0.4H50.9z"/>
	</g>
	<g class="st0">
		<path class="st5" d="M57.5,80.7h-2.1c-0.4,0-0.8-0.4-0.8-0.8v-1c0-0.4,0.4-0.8,0.8-0.8h2.1c0.4,0,0.8,0.4,0.8,0.8v1
			C58.3,80.4,58,80.7,57.5,80.7z"/>
		<path class="st1" d="M57.7,80.9h-2.4c-0.5,0-0.8-0.4-0.8-0.8v-1.3c0-0.5,0.4-0.8,0.8-0.8h2.4c0.5,0,0.8,0.4,0.8,0.8v1.3
			C58.5,80.5,58.1,80.9,57.7,80.9z M55.3,78.3c-0.2,0-0.4,0.2-0.4,0.4v1.3c0,0.2,0.2,0.4,0.4,0.4h2.4c0.2,0,0.4-0.2,0.4-0.4v-1.3
			c0-0.2-0.2-0.4-0.4-0.4H55.3z"/>
	</g>
	<g class="st0">
		<path class="st5" d="M61.9,80.7h-2.1c-0.4,0-0.8-0.4-0.8-0.8v-1c0-0.4,0.4-0.8,0.8-0.8h2.1c0.4,0,0.8,0.4,0.8,0.8v1
			C62.7,80.4,62.3,80.7,61.9,80.7z"/>
		<path class="st1" d="M62,80.9h-2.4c-0.5,0-0.8-0.4-0.8-0.8v-1.3c0-0.5,0.4-0.8,0.8-0.8H62c0.5,0,0.8,0.4,0.8,0.8v1.3
			C62.9,80.5,62.5,80.9,62,80.9z M59.6,78.3c-0.2,0-0.4,0.2-0.4,0.4v1.3c0,0.2,0.2,0.4,0.4,0.4H62c0.2,0,0.4-0.2,0.4-0.4v-1.3
			c0-0.2-0.2-0.4-0.4-0.4H59.6z"/>
	</g>
	<g class="st0">
		<path class="st5" d="M70.6,80.7h-2.1c-0.4,0-0.8-0.4-0.8-0.8v-1c0-0.4,0.4-0.8,0.8-0.8h2.1c0.4,0,0.8,0.4,0.8,0.8v1
			C71.4,80.4,71,80.7,70.6,80.7z"/>
		<path class="st1" d="M70.7,80.9h-2.4c-0.5,0-0.8-0.4-0.8-0.8v-1.3c0-0.5,0.4-0.8,0.8-0.8h2.4c0.5,0,0.8,0.4,0.8,0.8v1.3
			C71.6,80.5,71.2,80.9,70.7,80.9z M68.3,78.3c-0.2,0-0.4,0.2-0.4,0.4v1.3c0,0.2,0.2,0.4,0.4,0.4h2.4c0.2,0,0.4-0.2,0.4-0.4v-1.3
			c0-0.2-0.2-0.4-0.4-0.4H68.3z"/>
	</g>
	<g class="st0">
		<g>
			<path class="st5" d="M53.2,84.3h-2.1c-0.4,0-0.8-0.4-0.8-0.8v-1c0-0.4,0.4-0.8,0.8-0.8h2.1c0.4,0,0.8,0.4,0.8,0.8v1
				C54,84,53.6,84.3,53.2,84.3z"/>
			<path class="st1" d="M53.3,84.5h-2.4c-0.5,0-0.8-0.4-0.8-0.8v-1.3c0-0.5,0.4-0.8,0.8-0.8h2.4c0.5,0,0.8,0.4,0.8,0.8v1.3
				C54.2,84.1,53.8,84.5,53.3,84.5z M50.9,81.9c-0.2,0-0.4,0.2-0.4,0.4v1.3c0,0.2,0.2,0.4,0.4,0.4h2.4c0.2,0,0.4-0.2,0.4-0.4v-1.3
				c0-0.2-0.2-0.4-0.4-0.4H50.9z"/>
		</g>
		<g>
			<path class="st5" d="M57.5,84.3h-2.1c-0.4,0-0.8-0.4-0.8-0.8v-1c0-0.4,0.4-0.8,0.8-0.8h2.1c0.4,0,0.8,0.4,0.8,0.8v1
				C58.3,84,58,84.3,57.5,84.3z"/>
			<path class="st1" d="M57.7,84.5h-2.4c-0.5,0-0.8-0.4-0.8-0.8v-1.3c0-0.5,0.4-0.8,0.8-0.8h2.4c0.5,0,0.8,0.4,0.8,0.8v1.3
				C58.5,84.1,58.1,84.5,57.7,84.5z M55.3,81.9c-0.2,0-0.4,0.2-0.4,0.4v1.3c0,0.2,0.2,0.4,0.4,0.4h2.4c0.2,0,0.4-0.2,0.4-0.4v-1.3
				c0-0.2-0.2-0.4-0.4-0.4H55.3z"/>
		</g>
		<g>
			<path class="st5" d="M61.9,84.3h-2.1c-0.4,0-0.8-0.4-0.8-0.8v-1c0-0.4,0.4-0.8,0.8-0.8h2.1c0.4,0,0.8,0.4,0.8,0.8v1
				C62.7,84,62.3,84.3,61.9,84.3z"/>
			<path class="st1" d="M62,84.5h-2.4c-0.5,0-0.8-0.4-0.8-0.8v-1.3c0-0.5,0.4-0.8,0.8-0.8H62c0.5,0,0.8,0.4,0.8,0.8v1.3
				C62.9,84.1,62.5,84.5,62,84.5z M59.6,81.9c-0.2,0-0.4,0.2-0.4,0.4v1.3c0,0.2,0.2,0.4,0.4,0.4H62c0.2,0,0.4-0.2,0.4-0.4v-1.3
				c0-0.2-0.2-0.4-0.4-0.4H59.6z"/>
		</g>
		<g>
			<path class="st5" d="M66.2,84.3h-2.1c-0.4,0-0.8-0.4-0.8-0.8v-1c0-0.4,0.4-0.8,0.8-0.8h2.1c0.4,0,0.8,0.4,0.8,0.8v1
				C67,84,66.7,84.3,66.2,84.3z"/>
			<path class="st1" d="M66.4,84.5H64c-0.5,0-0.8-0.4-0.8-0.8v-1.3c0-0.5,0.4-0.8,0.8-0.8h2.4c0.5,0,0.8,0.4,0.8,0.8v1.3
				C67.2,84.1,66.8,84.5,66.4,84.5z M64,81.9c-0.2,0-0.4,0.2-0.4,0.4v1.3c0,0.2,0.2,0.4,0.4,0.4h2.4c0.2,0,0.4-0.2,0.4-0.4v-1.3
				c0-0.2-0.2-0.4-0.4-0.4H64z"/>
		</g>
		<g>
			<path class="st5" d="M70.6,84.3h-2.1c-0.4,0-0.8-0.4-0.8-0.8v-1c0-0.4,0.4-0.8,0.8-0.8h2.1c0.4,0,0.8,0.4,0.8,0.8v1
				C71.4,84,71,84.3,70.6,84.3z"/>
			<path class="st1" d="M70.7,84.5h-2.4c-0.5,0-0.8-0.4-0.8-0.8v-1.3c0-0.5,0.4-0.8,0.8-0.8h2.4c0.5,0,0.8,0.4,0.8,0.8v1.3
				C71.6,84.1,71.2,84.5,70.7,84.5z M68.3,81.9c-0.2,0-0.4,0.2-0.4,0.4v1.3c0,0.2,0.2,0.4,0.4,0.4h2.4c0.2,0,0.4-0.2,0.4-0.4v-1.3
				c0-0.2-0.2-0.4-0.4-0.4H68.3z"/>
		</g>
	</g>
	<g class="st0">
		<path class="st1" d="M61.6,73.4L61.6,73.4l-1.5-1.5c-0.2-0.2-0.2-0.6,0-0.8l0,0l1.5,1.5C61.8,72.8,61.8,73.2,61.6,73.4z"/>
		<path class="st1" d="M59.7,73L59.7,73l1.5-1.5c0.2-0.2,0.6-0.2,0.8,0l0,0L60.5,73C60.2,73.2,59.9,73.2,59.7,73z"/>
	</g>
	<g class="st0">
		<path class="st1" d="M52.9,80.6L52.9,80.6l-1.5-1.5c-0.2-0.2-0.2-0.6,0-0.8l0,0l1.5,1.5C53.1,80,53.1,80.4,52.9,80.6z"/>
		<path class="st1" d="M51,80.2L51,80.2l1.5-1.5c0.2-0.2,0.6-0.2,0.8,0l0,0l-1.5,1.5C51.5,80.4,51.2,80.4,51,80.2z"/>
	</g>
	<g class="st0">
		<path class="st1" d="M70.3,84.2L70.3,84.2l-1.5-1.5c-0.2-0.2-0.2-0.6,0-0.8l0,0l1.5,1.5C70.5,83.6,70.5,84,70.3,84.2z"/>
		<path class="st1" d="M68.4,83.8L68.4,83.8l1.5-1.5c0.2-0.2,0.6-0.2,0.8,0l0,0l-1.5,1.5C68.9,84,68.6,84,68.4,83.8z"/>
	</g>
	<g>
		<g class="st0">
			<path class="st1" d="M60.6,33.8H60c-0.3,0-0.5-0.2-0.5-0.5V32c0-0.3,0.2-0.5,0.5-0.5h0.6c0.3,0,0.5,0.2,0.5,0.5v1.3
				C61.1,33.6,60.9,33.8,60.6,33.8z"/>
			<path class="st1" d="M60.7,34h-0.8c-0.3,0-0.6-0.2-0.6-0.6v-1.5c0-0.3,0.2-0.6,0.6-0.6h0.8c0.3,0,0.6,0.2,0.6,0.6v1.5
				C61.3,33.7,61,34,60.7,34z M59.9,31.7c-0.1,0-0.2,0.1-0.2,0.2v1.5c0,0.1,0.1,0.2,0.2,0.2h0.8c0.1,0,0.2-0.1,0.2-0.2v-1.5
				c0-0.1-0.1-0.2-0.2-0.2H59.9z"/>
		</g>
		<g class="st0">
			<path class="st1" d="M55.2,35.1l-0.5,0.3c-0.2,0.1-0.5,0.1-0.7-0.2l-0.6-1.1c-0.1-0.2-0.1-0.5,0.2-0.7l0.5-0.3
				c0.2-0.1,0.5-0.1,0.7,0.2l0.6,1.1C55.5,34.7,55.4,35,55.2,35.1z"/>
			<path class="st1" d="M54.4,35.7c-0.2,0-0.4-0.1-0.5-0.3l-0.7-1.3c-0.1-0.1-0.1-0.3-0.1-0.4c0-0.1,0.1-0.3,0.3-0.3l0.7-0.4
				c0.3-0.2,0.6-0.1,0.8,0.2l0.7,1.3c0.2,0.3,0.1,0.6-0.2,0.8l-0.7,0.4C54.6,35.6,54.5,35.7,54.4,35.7z M54.3,33.2
				C54.3,33.2,54.3,33.3,54.3,33.2l-0.8,0.4c0,0-0.1,0.1-0.1,0.1c0,0,0,0.1,0,0.1l0.7,1.3c0,0.1,0.2,0.1,0.2,0.1l0.7-0.4
				c0.1,0,0.1-0.2,0.1-0.2l-0.7-1.3C54.4,33.3,54.4,33.2,54.3,33.2z"/>
		</g>
		<g class="st0">
			<path class="st1" d="M49.5,44.3v0.6c0,0.3-0.2,0.5-0.5,0.5h-1.3c-0.3,0-0.5-0.2-0.5-0.5v-0.6c0-0.3,0.2-0.5,0.5-0.5H49
				C49.3,43.9,49.5,44.1,49.5,44.3z"/>
			<path class="st1" d="M49.1,45.6h-1.5c-0.3,0-0.6-0.2-0.6-0.6v-0.8c0-0.3,0.2-0.6,0.6-0.6h1.5c0.3,0,0.6,0.2,0.6,0.6V45
				C49.7,45.3,49.4,45.6,49.1,45.6z M47.6,44c-0.1,0-0.2,0.1-0.2,0.2V45c0,0.1,0.1,0.2,0.2,0.2h1.5c0.1,0,0.2-0.1,0.2-0.2v-0.8
				c0-0.1-0.1-0.2-0.2-0.2H47.6z"/>
		</g>
		<g class="st0">
			<path class="st1" d="M50.8,49.8l0.3,0.5c0.1,0.2,0.1,0.5-0.2,0.7l-1.1,0.6c-0.2,0.1-0.5,0.1-0.7-0.2l-0.3-0.5
				c-0.1-0.2-0.1-0.5,0.2-0.7l1.1-0.6C50.4,49.5,50.6,49.6,50.8,49.8z"/>
			<path class="st1" d="M49.5,51.9c0,0-0.1,0-0.1,0c-0.1,0-0.3-0.1-0.3-0.3l-0.4-0.7c-0.1-0.1-0.1-0.3-0.1-0.4
				c0-0.1,0.1-0.3,0.3-0.3l1.3-0.7c0.3-0.2,0.6-0.1,0.8,0.2l0.4,0.7c0.2,0.3,0.1,0.6-0.2,0.8l-1.3,0.7
				C49.7,51.9,49.6,51.9,49.5,51.9z M50.4,49.7C50.4,49.7,50.3,49.7,50.4,49.7L49,50.5c-0.1,0-0.1,0.2-0.1,0.2l0.4,0.7
				c0,0.1,0.2,0.1,0.2,0.1l1.3-0.7c0.1,0,0.1-0.2,0.1-0.2l-0.4-0.7C50.5,49.7,50.5,49.7,50.4,49.7z"/>
		</g>
		<g class="st0">
			<path class="st1" d="M54.6,53.9l0.5,0.3c0.2,0.1,0.3,0.4,0.2,0.7l-0.6,1.1c-0.1,0.2-0.4,0.3-0.7,0.2l-0.5-0.3
				c-0.2-0.1-0.3-0.4-0.2-0.7l0.6-1.1C54.1,53.8,54.4,53.7,54.6,53.9z"/>
			<path class="st1" d="M54.3,56.4c-0.1,0-0.2,0-0.3-0.1l-0.7-0.4c-0.1-0.1-0.2-0.2-0.3-0.3c0-0.1,0-0.3,0.1-0.4l0.7-1.3
				c0.2-0.3,0.5-0.4,0.8-0.2l0.7,0.4c0.3,0.2,0.4,0.5,0.2,0.8l-0.7,1.3c-0.1,0.1-0.2,0.2-0.3,0.3C54.4,56.4,54.4,56.4,54.3,56.4z
				 M54.4,54c-0.1,0-0.1,0-0.2,0.1l-0.7,1.3c0,0,0,0.1,0,0.1c0,0,0,0.1,0.1,0.1l0.7,0.4c0,0,0.1,0,0.1,0c0,0,0.1,0,0.1-0.1l0.7-1.3
				c0-0.1,0-0.2-0.1-0.2L54.4,54C54.4,54,54.4,54,54.4,54z"/>
		</g>
		<g class="st0">
			<path class="st1" d="M69.6,50.3l0.3-0.5c0.1-0.2,0.4-0.3,0.7-0.2l1.1,0.6c0.2,0.1,0.3,0.4,0.2,0.7l-0.3,0.5
				c-0.1,0.2-0.4,0.3-0.7,0.2L69.8,51C69.5,50.8,69.4,50.5,69.6,50.3z"/>
			<path class="st1" d="M71.1,51.9c-0.1,0-0.2,0-0.3-0.1l-1.3-0.7c-0.3-0.2-0.4-0.5-0.2-0.8l0.4-0.7c0.2-0.3,0.5-0.4,0.8-0.2
				l1.3,0.7c0.3,0.2,0.4,0.5,0.2,0.8l-0.4,0.7c-0.1,0.1-0.2,0.2-0.3,0.3C71.2,51.9,71.2,51.9,71.1,51.9z M69.7,50.5
				c0,0.1,0,0.2,0.1,0.2l1.3,0.7c0,0,0.1,0,0.1,0c0,0,0.1,0,0.1-0.1l0.4-0.7c0-0.1,0-0.2-0.1-0.2l-1.3-0.7c-0.1,0-0.2,0-0.2,0.1
				L69.7,50.5z"/>
		</g>
		<g class="st0">
			<path class="st1" d="M71.2,44.9v-0.6c0-0.3,0.2-0.5,0.5-0.5h1.3c0.3,0,0.5,0.2,0.5,0.5v0.6c0,0.3-0.2,0.5-0.5,0.5h-1.3
				C71.4,45.4,71.2,45.2,71.2,44.9z"/>
			<path class="st1" d="M73,45.6h-1.5c-0.3,0-0.6-0.2-0.6-0.6v-0.8c0-0.3,0.2-0.6,0.6-0.6H73c0.3,0,0.6,0.2,0.6,0.6V45
				C73.6,45.3,73.3,45.6,73,45.6z M71.5,44c-0.1,0-0.2,0.1-0.2,0.2V45c0,0.1,0.1,0.2,0.2,0.2H73c0.1,0,0.2-0.1,0.2-0.2v-0.8
				c0-0.1-0.1-0.2-0.2-0.2H71.5z"/>
		</g>
		<g class="st0">
			<path class="st1" d="M69.9,39.5l-0.3-0.5c-0.1-0.2-0.1-0.5,0.2-0.7l1.1-0.6c0.2-0.1,0.5-0.1,0.7,0.2l0.3,0.5
				c0.1,0.2,0.1,0.5-0.2,0.7l-1.1,0.6C70.3,39.8,70,39.7,69.9,39.5z"/>
			<path class="st1" d="M70.2,39.9c0,0-0.1,0-0.1,0c-0.1,0-0.3-0.1-0.3-0.3l-0.4-0.7c-0.2-0.3-0.1-0.6,0.2-0.8l1.3-0.7
				c0.1-0.1,0.3-0.1,0.4-0.1c0.1,0,0.3,0.1,0.3,0.3l0.4,0.7c0.1,0.1,0.1,0.3,0.1,0.4c0,0.1-0.1,0.3-0.3,0.3l-1.3,0.7
				C70.4,39.9,70.3,39.9,70.2,39.9z M71.1,37.7C71.1,37.7,71.1,37.8,71.1,37.7l-1.4,0.8c0,0-0.1,0.1-0.1,0.1c0,0,0,0.1,0,0.1
				l0.4,0.7c0,0,0.1,0.1,0.1,0.1c0,0,0.1,0,0.1,0l1.3-0.7c0,0,0.1-0.1,0.1-0.1c0,0,0-0.1,0-0.1l-0.4-0.7
				C71.3,37.8,71.2,37.8,71.1,37.7C71.2,37.7,71.1,37.7,71.1,37.7z"/>
		</g>
		<g class="st0">
			<path class="st1" d="M66,35.4l-0.5-0.3c-0.2-0.1-0.3-0.4-0.2-0.7l0.6-1.1c0.1-0.2,0.4-0.3,0.7-0.2l0.5,0.3
				c0.2,0.1,0.3,0.4,0.2,0.7l-0.6,1.1C66.5,35.4,66.2,35.5,66,35.4z"/>
			<path class="st1" d="M66.3,35.7c-0.1,0-0.2,0-0.3-0.1l-0.7-0.4c-0.3-0.2-0.4-0.5-0.2-0.8l0.7-1.3c0.1-0.1,0.2-0.2,0.3-0.3
				c0.1,0,0.3,0,0.4,0.1l0.7,0.4c0.1,0.1,0.2,0.2,0.3,0.3c0,0.1,0,0.3-0.1,0.4l-0.7,1.3C66.7,35.6,66.5,35.7,66.3,35.7z M66.2,35.3
				c0.1,0,0.2,0,0.2-0.1l0.7-1.3c0,0,0-0.1,0-0.1c0,0,0-0.1-0.1-0.1l-0.7-0.4c0,0-0.1,0-0.1,0c0,0-0.1,0-0.1,0.1l-0.7,1.3
				c0,0.1,0,0.2,0.1,0.2L66.2,35.3z"/>
		</g>
	</g>
	<path class="st2" d="M60.3,59.2v-1.1c7.4,0,13.4-6,13.4-13.4s-6-13.4-13.4-13.4v-1.1c8,0,14.6,6.5,14.6,14.6S68.4,59.2,60.3,59.2z"
		/>
	<path class="st2" d="M60.3,62.9v-1.1c9.5,0,17.2-7.7,17.2-17.2s-7.7-17.2-17.2-17.2v-1.1c10.1,0,18.3,8.2,18.3,18.3
		S70.4,62.9,60.3,62.9z"/>
	<g>
		<polygon class="st1" points="33.6,56.1 33.6,55.1 34.5,55.2 34.5,56.1 		"/>
		<path class="st1" d="M34.7,56.3h-1.3l0-1.3l1.3,0L34.7,56.3z M33.8,55.9h0.6l0-0.6l-0.6,0L33.8,55.9z"/>
	</g>
	<g>
		<polygon class="st1" points="33.6,59 33.6,58.1 34.5,58.1 34.5,59 		"/>
		<path class="st1" d="M34.7,59.2h-1.3l0-1.3l1.3,0L34.7,59.2z M33.8,58.9h0.6l0-0.6l-0.6,0L33.8,58.9z"/>
	</g>
	<g>
		<polygon class="st1" points="33.6,62 33.6,61.1 34.5,61.1 34.5,62 		"/>
		<path class="st1" d="M34.7,62.2h-1.3l0-1.3l1.3,0L34.7,62.2z M33.8,61.8h0.6l0-0.6l-0.6,0L33.8,61.8z"/>
	</g>
	<g>
		<path class="st1" d="M57.5,77.1h-2.1c-0.4,0-0.8-0.4-0.8-0.8v-1c0-0.4,0.4-0.8,0.8-0.8h2.1c0.4,0,0.8,0.4,0.8,0.8v1
			C58.3,76.8,58,77.1,57.5,77.1z"/>
		<path class="st1" d="M57.7,77.3h-2.4c-0.5,0-0.8-0.4-0.8-0.8v-1.3c0-0.5,0.4-0.8,0.8-0.8h2.4c0.5,0,0.8,0.4,0.8,0.8v1.3
			C58.5,76.9,58.1,77.3,57.7,77.3z M55.3,74.7c-0.2,0-0.4,0.2-0.4,0.4v1.3c0,0.2,0.2,0.4,0.4,0.4h2.4c0.2,0,0.4-0.2,0.4-0.4v-1.3
			c0-0.2-0.2-0.4-0.4-0.4H55.3z"/>
	</g>
	<g>
		<path class="st1" d="M66.2,80.7h-2.1c-0.4,0-0.8-0.4-0.8-0.8v-1c0-0.4,0.4-0.8,0.8-0.8h2.1c0.4,0,0.8,0.4,0.8,0.8v1
			C67,80.4,66.7,80.7,66.2,80.7z"/>
		<path class="st1" d="M66.4,80.9H64c-0.5,0-0.8-0.4-0.8-0.8v-1.3c0-0.5,0.4-0.8,0.8-0.8h2.4c0.5,0,0.8,0.4,0.8,0.8v1.3
			C67.2,80.5,66.8,80.9,66.4,80.9z M64,78.3c-0.2,0-0.4,0.2-0.4,0.4v1.3c0,0.2,0.2,0.4,0.4,0.4h2.4c0.2,0,0.4-0.2,0.4-0.4v-1.3
			c0-0.2-0.2-0.4-0.4-0.4H64z"/>
	</g>
	<g>
		<g>
			<path class="st1" d="M60.5,34.8c0.5,2,1.6,8.4,0,11.6c-0.1,0.2-0.3,0.2-0.4,0c-1.6-3.3-0.4-9.7,0-11.6
				C60.2,34.7,60.5,34.7,60.5,34.8z"/>
			<path class="st1" d="M60.3,46.8c-0.2,0-0.3-0.1-0.4-0.2c-1.8-3.8-0.1-11.4,0-11.8c0-0.2,0.2-0.3,0.4-0.3h0c0.2,0,0.3,0.1,0.4,0.3
				c0.1,0.3,1.8,7.9,0,11.8C60.6,46.7,60.5,46.8,60.3,46.8L60.3,46.8z M60.3,34.9c-0.6,2.7-1.4,8.5,0,11.5l0,0
				C61.8,43.5,61,37.6,60.3,34.9z"/>
		</g>
		<g>
			<path class="st1" d="M51.8,44.7c1.7-0.3,7.7-1.1,10.5,0c0.1,0.1,0.1,0.2,0,0.3c-2.8,1.1-8.8,0.3-10.5,0
				C51.6,44.9,51.6,44.7,51.8,44.7z"/>
			<path class="st1" d="M58.1,45.7c-2.6,0-5.4-0.4-6.3-0.6c-0.2,0-0.3-0.2-0.3-0.3c0-0.2,0.1-0.3,0.3-0.3l0,0
				c1.5-0.3,7.7-1.1,10.6,0c0.1,0.1,0.2,0.2,0.2,0.3c0,0.1-0.1,0.3-0.2,0.3C61.2,45.6,59.7,45.7,58.1,45.7z M52.2,44.8
				c1.9,0.3,7.2,1,9.9,0C59.4,43.9,54.1,44.5,52.2,44.8z"/>
		</g>
	</g>
	<g>
		<path class="st1" d="M44.3,36c0-0.5-0.1-1.1-0.2-1.6c-0.1-0.3,0.1-0.7,0.4-0.9l0.7-0.4c0.4-0.2,0.5-0.7,0.3-1.1l-0.7-1.3
			c-0.2-0.4-0.7-0.5-1.1-0.3L43,30.9c-0.3,0.2-0.7,0.1-1-0.1c-0.8-0.7-1.7-1.2-2.7-1.6c-0.3-0.1-0.6-0.4-0.6-0.8v-0.8
			c0-0.4-0.4-0.8-0.8-0.8h-1.5c-0.4,0-0.8,0.4-0.8,0.8v0.8c0,0.4-0.2,0.7-0.6,0.8c-1,0.3-1.9,0.9-2.7,1.6c-0.3,0.2-0.6,0.3-1,0.1
			l-0.7-0.4c-0.4-0.2-0.9-0.1-1.1,0.3l-0.7,1.3c-0.2,0.4-0.1,0.9,0.3,1.1l0.7,0.4c0.3,0.2,0.5,0.5,0.4,0.9c-0.1,0.5-0.2,1-0.2,1.6
			s0.1,1.1,0.2,1.6c0.1,0.3-0.1,0.7-0.4,0.9l-0.7,0.4c-0.4,0.2-0.5,0.7-0.3,1.1l0.7,1.3c0.2,0.4,0.7,0.5,1.1,0.3l0.7-0.4
			c0.3-0.2,0.7-0.1,1,0.1c0.8,0.7,1.7,1.2,2.7,1.6c0.3,0.1,0.6,0.4,0.6,0.8v0.8c0,0.4,0.4,0.8,0.8,0.8H38c0.4,0,0.8-0.4,0.8-0.8
			v-0.8c0-0.4,0.2-0.7,0.6-0.8c1-0.3,1.9-0.9,2.7-1.6c0.3-0.2,0.6-0.3,1-0.1l0.7,0.4c0.4,0.2,0.9,0.1,1.1-0.3l0.7-1.3
			c0.2-0.4,0.1-0.9-0.3-1.1l-0.7-0.4c-0.3-0.2-0.5-0.5-0.4-0.9C44.3,37.1,44.3,36.5,44.3,36z M37.2,39.6c-2,0-3.6-1.6-3.6-3.6
			s1.6-3.6,3.6-3.6s3.6,1.6,3.6,3.6S39.2,39.6,37.2,39.6z"/>
		<path class="st1" d="M38,45.4h-1.5c-0.5,0-1-0.4-1-1v-0.8c0-0.3-0.2-0.5-0.4-0.6c-1-0.3-2-0.9-2.8-1.6c-0.2-0.2-0.5-0.2-0.7-0.1
			l-0.7,0.4c-0.5,0.3-1.1,0.1-1.4-0.4L28.7,40c-0.1-0.2-0.2-0.5-0.1-0.8c0.1-0.3,0.2-0.5,0.5-0.6l0.7-0.4c0.2-0.1,0.3-0.4,0.3-0.7
			c-0.1-0.5-0.2-1.1-0.2-1.6s0.1-1.1,0.2-1.6c0.1-0.3-0.1-0.5-0.3-0.7l-0.7-0.4c-0.2-0.1-0.4-0.3-0.5-0.6c-0.1-0.3,0-0.5,0.1-0.8
			l0.7-1.3c0.3-0.5,0.9-0.6,1.4-0.4l0.7,0.4c0.2,0.1,0.5,0.1,0.7-0.1c0.8-0.7,1.7-1.3,2.8-1.6c0.3-0.1,0.4-0.3,0.4-0.6v-0.8
			c0-0.5,0.4-1,1-1H38c0.5,0,1,0.4,1,1v0.8c0,0.3,0.2,0.5,0.4,0.6c1,0.3,2,0.9,2.8,1.6c0.2,0.2,0.5,0.2,0.7,0.1l0.7-0.4
			c0.5-0.3,1.1-0.1,1.4,0.4l0.7,1.3c0.1,0.2,0.2,0.5,0.1,0.8c-0.1,0.3-0.2,0.5-0.5,0.6l-0.7,0.4c-0.2,0.1-0.3,0.4-0.3,0.7
			c0.1,0.5,0.2,1.1,0.2,1.6s-0.1,1.1-0.2,1.6c-0.1,0.3,0.1,0.5,0.3,0.7l0.7,0.4c0.2,0.1,0.4,0.3,0.5,0.6c0.1,0.3,0,0.5-0.1,0.8
			L45,41.3c-0.3,0.5-0.9,0.6-1.4,0.4l-0.7-0.4c-0.2-0.1-0.5-0.1-0.7,0.1c-0.8,0.7-1.7,1.3-2.8,1.6C39.1,43,39,43.3,39,43.6v0.8
			C39,44.9,38.5,45.4,38,45.4z M31.9,40.8c0.2,0,0.5,0.1,0.7,0.3c0.7,0.7,1.7,1.2,2.6,1.5c0.4,0.1,0.7,0.5,0.7,0.9v0.8
			c0,0.3,0.3,0.6,0.6,0.6H38c0.3,0,0.6-0.3,0.6-0.6v-0.8c0-0.4,0.3-0.8,0.7-0.9c1-0.3,1.9-0.8,2.6-1.5c0.3-0.3,0.8-0.4,1.2-0.1
			l0.7,0.4c0.1,0.1,0.3,0.1,0.5,0.1c0.2,0,0.3-0.1,0.4-0.3l0.7-1.3c0.2-0.3,0.1-0.7-0.2-0.8l-0.7-0.4c-0.4-0.2-0.6-0.7-0.5-1.1
			c0.1-0.5,0.2-1,0.2-1.5c0-0.5-0.1-1-0.2-1.5c-0.1-0.4,0.1-0.9,0.5-1.1l0.7-0.4c0.3-0.2,0.4-0.5,0.2-0.8l-0.7-1.3
			c-0.1-0.1-0.2-0.2-0.4-0.3c-0.2,0-0.3,0-0.5,0.1l-0.7,0.4c-0.4,0.2-0.8,0.2-1.2-0.1c-0.7-0.7-1.7-1.2-2.6-1.5
			c-0.4-0.1-0.7-0.5-0.7-0.9v-0.8c0-0.3-0.3-0.6-0.6-0.6h-1.5c-0.3,0-0.6,0.3-0.6,0.6v0.8c0,0.4-0.3,0.8-0.7,0.9
			c-1,0.3-1.9,0.8-2.6,1.5c-0.3,0.3-0.8,0.4-1.2,0.1l-0.7-0.4c-0.3-0.2-0.7-0.1-0.8,0.2l-0.7,1.3c-0.2,0.3-0.1,0.7,0.2,0.8l0.7,0.4
			c0.4,0.2,0.6,0.7,0.5,1.1c-0.1,0.5-0.2,1-0.2,1.5c0,0.5,0.1,1,0.2,1.5c0.1,0.4-0.1,0.9-0.5,1.1L29.3,39c-0.1,0.1-0.2,0.2-0.3,0.4
			c0,0.2,0,0.3,0.1,0.5l0.7,1.3c0.2,0.3,0.5,0.4,0.8,0.2l0.7-0.4C31.5,40.9,31.7,40.8,31.9,40.8z M37.2,39.8c-2.1,0-3.8-1.7-3.8-3.8
			c0-2.1,1.7-3.8,3.8-3.8c2.1,0,3.8,1.7,3.8,3.8C41,38.1,39.3,39.8,37.2,39.8z M37.2,32.6c-1.9,0-3.4,1.5-3.4,3.4
			c0,1.9,1.5,3.4,3.4,3.4c1.9,0,3.4-1.5,3.4-3.4C40.7,34.1,39.1,32.6,37.2,32.6z"/>
	</g>
</g>
</svg>
