<?xml version="1.0" encoding="utf-8"?>
<!-- Generator: Adobe Illustrator 23.1.0, SVG Export Plug-In . SVG Version: 6.00 Build 0)  -->
<svg version="1.1" id="Layer_1" xmlns="http://www.w3.org/2000/svg" xmlns:xlink="http://www.w3.org/1999/xlink" x="0px" y="0px"
	 viewBox="0 0 280.1 349" style="enable-background:new 0 0 280.1 349;" xml:space="preserve">
<style type="text/css">
	.st0{fill:#0D4D8C;}
	.st1{fill:#EE8A22;}
	.st2{opacity:0.75;}
	.st3{fill:none;stroke:#415F6C;stroke-width:3;stroke-miterlimit:10;}
	.st4{fill:none;stroke:#415F6C;stroke-width:3;stroke-miterlimit:10;stroke-dasharray:3.0054,3.0054;}
	.st5{opacity:0.75;fill:none;stroke:#415F6C;stroke-width:6;stroke-miterlimit:10;enable-background:new    ;}
	.st6{fill:none;stroke:#415F6C;stroke-width:3;stroke-miterlimit:10;stroke-dasharray:3.0203,3.0203;}
	.st7{fill:#EEF0F2;}
	.st8{fill:none;stroke:#415F6C;stroke-miterlimit:10;}
	.st9{fill:#D3DADD;}
	.st10{fill:#43455D;stroke:#415F6C;stroke-miterlimit:10;}
	
		.st11{opacity:0.75;fill:none;stroke:#415F6C;stroke-width:0.25;stroke-linecap:round;stroke-miterlimit:10;enable-background:new    ;}
	.st12{fill:none;stroke:#415F6C;stroke-width:6;stroke-miterlimit:10;}
	.st13{fill:#D1DDF1;stroke:#415F6C;stroke-miterlimit:10;}
	.st14{opacity:0.75;fill:#D1DDF1;stroke:#415F6C;stroke-miterlimit:10;enable-background:new    ;}
	.st15{opacity:0.75;fill:#00A99D;stroke:#415F6C;stroke-miterlimit:10;enable-background:new    ;}
	.st16{opacity:0.75;fill:none;stroke:#415F6C;stroke-width:3;stroke-miterlimit:10;enable-background:new    ;}
	.st17{fill:#00A99D;stroke:#415F6C;stroke-miterlimit:10;}
</style>
<path class="st0" d="M126.6,323.1c-0.4-0.1-0.6-0.3-0.7-0.4l0,0c-0.3-0.3-0.4-0.6-0.4-1c0-0.3,0.1-0.5,0.2-0.8
	c0.2-0.2,0.4-0.4,0.6-0.6s0.5-0.3,0.8-0.4s0.6-0.1,0.9-0.1c0.9,0,1.7,0.4,2.4,1.1c0.1,0.1,0.1,0.2,0.1,0.4c0,0.2-0.1,0.3-0.2,0.4
	c-0.1,0.1-0.3,0.2-0.4,0.2c-0.1,0-0.2,0-0.3-0.1s-0.2-0.1-0.2-0.2c-0.4-0.4-0.8-0.6-1.4-0.6c-0.5,0-1,0.2-1.3,0.5
	c-0.1,0.1-0.1,0.1-0.1,0.2s0,0.2,0.1,0.2l2.6,0.9c0.4,0.1,0.6,0.3,0.7,0.4l0,0c0.3,0.3,0.4,0.6,0.4,1c0,0.3-0.1,0.5-0.2,0.8
	c-0.2,0.2-0.4,0.4-0.6,0.6c-0.2,0.2-0.5,0.3-0.8,0.4s-0.6,0.1-0.9,0.1c-0.9,0-1.8-0.4-2.4-1.1c-0.1-0.1-0.1-0.2-0.1-0.4
	c0-0.2,0.1-0.3,0.2-0.4s0.3-0.2,0.4-0.2s0.2,0,0.3,0.1c0.1,0.1,0.2,0.1,0.2,0.2c0.4,0.4,0.9,0.6,1.4,0.6c0.5,0,1-0.2,1.3-0.5
	c0.1-0.1,0.1-0.1,0.1-0.2s-0.1-0.2-0.2-0.2L126.6,323.1z"/>
<path class="st0" d="M137.7,322.9c0,0.9-0.3,1.6-0.9,2.2c-0.6,0.6-1.4,0.9-2.2,0.9c-0.9,0-1.6-0.3-2.2-0.9c-0.6-0.6-0.9-1.4-0.9-2.2
	c0-0.9,0.3-1.6,0.9-2.2c0.6-0.6,1.4-0.9,2.2-0.9c0.9,0,1.6,0.3,2.2,0.9c0.3,0.3,0.5,0.6,0.7,1C137.6,322.1,137.7,322.5,137.7,322.9
	 M134.6,320.9c-0.3,0-0.5,0.1-0.8,0.2c-0.2,0.1-0.4,0.2-0.6,0.4c-0.2,0.2-0.3,0.4-0.4,0.6c-0.1,0.2-0.2,0.5-0.2,0.8s0.1,0.5,0.2,0.8
	c0.1,0.2,0.2,0.5,0.4,0.6c0.2,0.2,0.4,0.3,0.6,0.4c0.2,0.1,0.5,0.2,0.8,0.2s0.5-0.1,0.8-0.2c0.2-0.1,0.5-0.2,0.6-0.4
	c0.2-0.2,0.3-0.4,0.4-0.6c0.1-0.2,0.2-0.5,0.2-0.8s-0.1-0.5-0.2-0.8c-0.1-0.2-0.2-0.4-0.4-0.6s-0.4-0.3-0.6-0.4
	C135.1,321,134.8,320.9,134.6,320.9"/>
<path class="st0" d="M141.8,318.2c-1,0-1.6,0.5-1.6,1.6v0.3h1.1c0.2,0,0.3,0.1,0.4,0.2c0.1,0.1,0.2,0.3,0.2,0.4
	c0,0.2-0.1,0.3-0.2,0.4c-0.1,0.1-0.3,0.2-0.4,0.2h-1.1v4.2c0,0.1,0,0.2,0,0.2c0,0.1-0.1,0.1-0.1,0.2c-0.1,0.1-0.1,0.1-0.2,0.1
	c-0.1,0-0.1,0-0.2,0c-0.1,0-0.2,0-0.2,0c-0.1,0-0.1-0.1-0.2-0.1c-0.1-0.1-0.1-0.1-0.1-0.2s0-0.1,0-0.2v-4.2h-0.3
	c-0.2,0-0.3-0.1-0.4-0.2c-0.1-0.1-0.2-0.3-0.2-0.4c0-0.2,0.1-0.3,0.2-0.4c0.1-0.1,0.3-0.2,0.4-0.2h0.3v-0.3c0-1.8,0.9-2.7,2.7-2.7
	c0.2,0,0.3,0.1,0.4,0.2c0.1,0.1,0.2,0.3,0.2,0.4c0,0.2-0.1,0.3-0.2,0.4C142.1,318.2,142,318.2,141.8,318.2"/>
<path class="st0" d="M143.4,319.8h0.3v-2.1c0-0.2,0.1-0.3,0.2-0.4c0.1-0.1,0.3-0.2,0.4-0.2c0.2,0,0.3,0.1,0.4,0.2
	c0.1,0.1,0.2,0.3,0.2,0.4v2.1h0.7c0.2,0,0.3,0.1,0.4,0.2c0.1,0.1,0.2,0.3,0.2,0.4c0,0.2-0.1,0.3-0.2,0.4c-0.1,0.1-0.3,0.2-0.4,0.2
	h-0.7v2.8c0,0.7,0.4,1.1,1.1,1.1c0.2,0,0.3,0.1,0.4,0.2c0.1,0.1,0.2,0.3,0.2,0.4c0,0.2-0.1,0.3-0.2,0.4c-0.1,0.1-0.3,0.2-0.4,0.2
	c-1.5,0-2.3-0.8-2.3-2.3V321h-0.3c-0.2,0-0.3-0.1-0.4-0.2c-0.1-0.1-0.2-0.3-0.2-0.4c0-0.2,0.1-0.3,0.2-0.4
	C143.1,319.8,143.2,319.8,143.4,319.8"/>
<path class="st0" d="M151.4,319.8c0.3,0,0.5,0.1,0.6,0.4l1.1,3.4l1.2-3.5c0-0.1,0.1-0.2,0.2-0.2c0.1-0.1,0.2-0.1,0.3-0.1
	s0.2,0,0.2,0c0.1,0,0.1,0.1,0.2,0.1c0.1,0.1,0.1,0.1,0.1,0.2s0,0.1,0,0.2s0,0.1,0,0.2l-1.7,5.1c0,0.1-0.1,0.2-0.2,0.3
	c-0.1,0.1-0.2,0.1-0.4,0.1c-0.1,0-0.2,0-0.3-0.1s-0.2-0.2-0.2-0.3l-1.2-3.5l-1.2,3.5c0,0.1-0.1,0.2-0.2,0.3
	c-0.1,0.1-0.2,0.1-0.3,0.1s-0.2,0-0.3-0.1s-0.2-0.2-0.2-0.3l-1.7-5.1c0-0.1,0-0.2,0-0.2c0-0.1,0-0.2,0-0.2c0-0.1,0.1-0.1,0.1-0.2
	c0.1-0.1,0.1-0.1,0.2-0.1c0.1,0,0.1,0,0.2,0c0.1,0,0.2,0,0.3,0.1s0.2,0.1,0.2,0.2l1.2,3.5l1.1-3.4
	C150.9,319.9,151.1,319.8,151.4,319.8"/>
<path class="st0" d="M161.5,325.5v-0.1c-0.3,0.2-0.6,0.4-0.9,0.5c-0.3,0.1-0.7,0.2-1.1,0.2c-0.9,0-1.6-0.3-2.2-0.9
	c-0.6-0.6-0.9-1.4-0.9-2.2c0-0.9,0.3-1.6,0.9-2.2c0.6-0.6,1.4-0.9,2.2-0.9c0.9,0,1.6,0.3,2.2,0.9c0.6,0.6,0.9,1.4,0.9,2.2v2.6
	c0,0.2-0.1,0.3-0.2,0.4c-0.1,0.1-0.3,0.2-0.4,0.2c-0.2,0-0.3-0.1-0.4-0.2C161.5,325.8,161.5,325.7,161.5,325.5 M159.5,320.9
	c-0.3,0-0.5,0.1-0.8,0.2c-0.2,0.1-0.4,0.2-0.6,0.4c-0.2,0.2-0.3,0.4-0.4,0.6c-0.1,0.2-0.2,0.5-0.2,0.8s0.1,0.5,0.2,0.8
	c0.1,0.2,0.2,0.5,0.4,0.6c0.2,0.2,0.4,0.3,0.6,0.4c0.2,0.1,0.5,0.2,0.8,0.2s0.5-0.1,0.8-0.2c0.2-0.1,0.5-0.2,0.6-0.4
	c0.2-0.2,0.3-0.4,0.4-0.6c0.1-0.2,0.2-0.5,0.2-0.8s-0.1-0.5-0.2-0.8c-0.1-0.2-0.2-0.4-0.4-0.6s-0.4-0.3-0.6-0.4
	C160,321,159.8,320.9,159.5,320.9"/>
<path class="st0" d="M164.7,320.3v0.1c0.3-0.2,0.6-0.4,0.9-0.5c0.3-0.1,0.7-0.2,1.1-0.2c0.2,0,0.3,0,0.5,0s0.4,0.1,0.5,0.1
	c0.2,0.1,0.3,0.1,0.4,0.2c0.1,0.1,0.2,0.2,0.2,0.4c0,0.1,0,0.2,0,0.2c0,0.1-0.1,0.1-0.1,0.2c-0.1,0.1-0.1,0.1-0.2,0.1
	c-0.1,0-0.1,0-0.2,0c-0.1,0-0.2,0-0.2-0.1c-0.2-0.1-0.5-0.1-0.8-0.1s-0.5,0.1-0.8,0.2c-0.2,0.1-0.5,0.2-0.6,0.4
	c-0.2,0.2-0.3,0.4-0.4,0.6c-0.1,0.2-0.2,0.5-0.2,0.8v2.6c0,0.2-0.1,0.3-0.2,0.4c-0.1,0.1-0.3,0.2-0.4,0.2c-0.2,0-0.3-0.1-0.4-0.2
	c-0.1-0.1-0.2-0.3-0.2-0.4v-5.1c0-0.2,0.1-0.3,0.2-0.4c0.1-0.1,0.3-0.2,0.4-0.2c0.2,0,0.3,0.1,0.4,0.2
	C164.7,320,164.7,320.2,164.7,320.3"/>
<path class="st0" d="M173.8,324.3c0.2,0,0.3,0.1,0.4,0.2c0.1,0.1,0.2,0.3,0.2,0.4c0,0.2-0.1,0.3-0.2,0.4c-0.6,0.5-1.3,0.8-2.1,0.8
	c-0.9,0-1.6-0.3-2.2-0.9c-0.6-0.6-0.9-1.4-0.9-2.2c0-0.9,0.3-1.6,0.9-2.2c0.6-0.6,1.4-0.9,2.2-0.9c0.9,0,1.6,0.3,2.2,0.9
	c0.3,0.3,0.5,0.6,0.7,1s0.2,0.8,0.2,1.2c0,0.2-0.1,0.3-0.2,0.4c-0.1,0.1-0.3,0.2-0.4,0.2h-4.5c0.1,0.2,0.2,0.4,0.3,0.6
	s0.3,0.3,0.4,0.4c0.2,0.1,0.4,0.2,0.6,0.3c0.2,0.1,0.4,0.1,0.6,0.1c0.2,0,0.5,0,0.7-0.1s0.4-0.2,0.6-0.3
	C173.5,324.4,173.6,324.3,173.8,324.3 M174,322.3c-0.1-0.2-0.2-0.4-0.3-0.6s-0.3-0.3-0.4-0.4c-0.2-0.1-0.4-0.2-0.6-0.3
	c-0.2-0.1-0.4-0.1-0.6-0.1c-0.2,0-0.4,0-0.6,0.1c-0.2,0.1-0.4,0.2-0.6,0.3c-0.2,0.1-0.3,0.3-0.4,0.4c-0.1,0.2-0.2,0.4-0.3,0.6H174z"
	/>
<polygon class="st1" points="126.4,330.4 125.9,330.4 125.9,328.9 125.4,328.9 125.4,328.5 126.8,328.5 126.8,328.9 126.4,328.9 "/>
<path class="st1" d="M127.8,328.3v1l0,0c0.1-0.1,0.2-0.2,0.4-0.2c0.3,0,0.5,0.2,0.5,0.5v0.8h-0.5v-0.7c0-0.2,0-0.3-0.2-0.3
	s-0.2,0.2-0.2,0.3v0.7h-0.5v-2.1L127.8,328.3L127.8,328.3z"/>
<path class="st1" d="M130.7,329.8h-1c0,0.2,0.1,0.3,0.3,0.3c0.1,0,0.2,0,0.2-0.1h0.4c-0.1,0.3-0.4,0.4-0.7,0.4
	c-0.4,0-0.8-0.2-0.8-0.7c0-0.4,0.3-0.7,0.7-0.7C130.5,329,130.7,329.3,130.7,329.8L130.7,329.8z M130.3,329.6c0-0.1-0.1-0.2-0.3-0.2
	c-0.1,0-0.2,0.1-0.3,0.2H130.3z"/>
<polygon class="st1" points="133.1,330 133.7,330 133.7,330.4 132.6,330.4 132.6,328.5 133.1,328.5 "/>
<path class="st1" d="M135.5,329.8h-1c0,0.2,0.1,0.3,0.3,0.3c0.1,0,0.2,0,0.2-0.1h0.4c-0.1,0.3-0.4,0.4-0.7,0.4
	c-0.4,0-0.8-0.2-0.8-0.7c0-0.4,0.3-0.7,0.7-0.7C135.3,329,135.5,329.3,135.5,329.8L135.5,329.8z M135.1,329.6c0-0.1-0.1-0.2-0.3-0.2
	c-0.1,0-0.2,0.1-0.3,0.2H135.1z"/>
<path class="st1" d="M137.6,330.3c0,0.6-0.3,0.8-0.8,0.8c-0.3,0-0.7-0.2-0.7-0.5h0.5c0,0,0,0.1,0.1,0.1h0.1c0.2,0,0.3-0.2,0.3-0.4
	v-0.1c-0.1,0.1-0.2,0.2-0.4,0.2c-0.4,0-0.6-0.3-0.6-0.7c0-0.4,0.3-0.7,0.7-0.7c0.2,0,0.3,0.1,0.4,0.2l0,0v-0.1h0.5v1.2H137.6z
	 M136.5,329.7c0,0.2,0.1,0.3,0.3,0.3s0.3-0.1,0.3-0.3c0-0.2-0.1-0.3-0.3-0.3C136.6,329.4,136.5,329.6,136.5,329.7"/>
<path class="st1" d="M139.7,330.4h-0.5v-0.1l0,0c-0.1,0.1-0.2,0.2-0.4,0.2c-0.4,0-0.7-0.3-0.7-0.7c0-0.4,0.3-0.7,0.7-0.7
	c0.1,0,0.3,0.1,0.4,0.2v-0.1h0.5V330.4z M138.6,329.7c0,0.2,0.1,0.3,0.3,0.3s0.3-0.1,0.3-0.3c0-0.2-0.1-0.3-0.3-0.3
	C138.7,329.4,138.6,329.6,138.6,329.7"/>
<rect x="140.4" y="328.3" class="st1" width="0.5" height="2.1"/>
<polygon class="st1" points="143.5,330.4 143,330.4 143,328.9 142.6,328.9 142.6,328.5 143.9,328.5 143.9,328.9 143.5,328.9 "/>
<path class="st1" d="M145.6,329.8h-1c0,0.2,0.1,0.3,0.3,0.3c0.1,0,0.2,0,0.2-0.1h0.4c-0.1,0.3-0.4,0.4-0.7,0.4
	c-0.4,0-0.8-0.2-0.8-0.7c0-0.4,0.3-0.7,0.7-0.7C145.4,329,145.6,329.3,145.6,329.8L145.6,329.8z M145.2,329.6c0-0.1-0.1-0.2-0.3-0.2
	c-0.1,0-0.2,0.1-0.3,0.2H145.2z"/>
<path class="st1" d="M147.2,329.5c-0.1-0.1-0.2-0.1-0.2-0.1c-0.2,0-0.3,0.1-0.3,0.3c0,0.2,0.1,0.3,0.3,0.3c0.1,0,0.2,0,0.2-0.1v0.4
	c-0.1,0.1-0.2,0.1-0.3,0.1c-0.4,0-0.7-0.3-0.7-0.7c0-0.4,0.3-0.7,0.7-0.7c0.1,0,0.2,0,0.3,0.1V329.5z"/>
<path class="st1" d="M148.3,328.3v1l0,0c0.1-0.1,0.2-0.2,0.4-0.2c0.3,0,0.5,0.2,0.5,0.5v0.8h-0.5v-0.7c0-0.2,0-0.3-0.2-0.3
	s-0.2,0.2-0.2,0.3v0.7h-0.5v-2.1L148.3,328.3L148.3,328.3z"/>
<path class="st1" d="M150.4,329.3L150.4,329.3c0.1-0.2,0.2-0.2,0.4-0.2c0.4,0,0.5,0.2,0.5,0.5v0.8h-0.5v-0.6c0-0.1,0-0.3-0.2-0.3
	s-0.2,0.1-0.2,0.3v0.7h-0.5v-1.3h0.5V329.3z"/>
<path class="st1" d="M153.4,329.7c0,0.4-0.4,0.7-0.8,0.7c-0.4,0-0.8-0.2-0.8-0.7s0.4-0.7,0.8-0.7S153.4,329.3,153.4,329.7
	 M152.4,329.7c0,0.2,0.1,0.3,0.3,0.3s0.3-0.1,0.3-0.3c0-0.2-0.1-0.3-0.3-0.3C152.5,329.4,152.4,329.6,152.4,329.7"/>
<rect x="154" y="328.3" class="st1" width="0.5" height="2.1"/>
<path class="st1" d="M156.7,329.7c0,0.4-0.4,0.7-0.8,0.7c-0.4,0-0.8-0.2-0.8-0.7s0.4-0.7,0.8-0.7S156.7,329.3,156.7,329.7
	 M155.6,329.7c0,0.2,0.1,0.3,0.3,0.3s0.3-0.1,0.3-0.3c0-0.2-0.1-0.3-0.3-0.3C155.7,329.4,155.6,329.6,155.6,329.7"/>
<path class="st1" d="M158.7,330.3c0,0.6-0.3,0.8-0.8,0.8c-0.3,0-0.7-0.2-0.7-0.5h0.5c0,0,0,0.1,0.1,0.1h0.1c0.2,0,0.3-0.2,0.3-0.4
	v-0.1c-0.1,0.1-0.2,0.2-0.4,0.2c-0.4,0-0.6-0.3-0.6-0.7c0-0.4,0.3-0.7,0.7-0.7c0.2,0,0.3,0.1,0.4,0.2l0,0v-0.1h0.5v1.2H158.7z
	 M157.6,329.7c0,0.2,0.1,0.3,0.3,0.3s0.3-0.1,0.3-0.3c0-0.2-0.1-0.3-0.3-0.3C157.7,329.4,157.6,329.6,157.6,329.7"/>
<polygon class="st1" points="159.2,329.1 159.7,329.1 160,329.8 160.4,329.1 160.9,329.1 159.9,331 159.3,331 159.8,330.2 "/>
<polygon class="st1" points="163.1,328.9 163.1,329.2 163.7,329.2 163.7,329.6 163.1,329.6 163.1,330 163.7,330 163.7,330.4 
	162.6,330.4 162.6,328.5 163.7,328.5 163.7,328.9 "/>
<polygon class="st1" points="164.3,329.1 164.9,329.1 165.2,329.4 165.4,329.1 166,329.1 165.5,329.7 166.1,330.4 165.5,330.4 
	165.2,330 164.8,330.4 164.2,330.4 164.9,329.7 "/>
<path class="st1" d="M167.1,329.2L167.1,329.2c0.1-0.1,0.2-0.2,0.4-0.2c0.4,0,0.7,0.3,0.7,0.7c0,0.4-0.3,0.7-0.7,0.7
	c-0.1,0-0.3-0.1-0.4-0.2v0.8h-0.5v-2h0.5V329.2z M167,329.7c0,0.2,0.1,0.3,0.3,0.3s0.3-0.1,0.3-0.3c0-0.2-0.1-0.3-0.3-0.3
	C167.1,329.4,167,329.6,167,329.7"/>
<path class="st1" d="M170.1,329.8h-1c0,0.2,0.1,0.3,0.3,0.3c0.1,0,0.2,0,0.2-0.1h0.4c-0.1,0.3-0.4,0.4-0.7,0.4
	c-0.4,0-0.8-0.2-0.8-0.7c0-0.4,0.3-0.7,0.7-0.7C169.8,329,170.1,329.3,170.1,329.8L170.1,329.8z M169.6,329.6c0-0.1-0.1-0.2-0.3-0.2
	c-0.1,0-0.2,0.1-0.3,0.2H169.6z"/>
<path class="st1" d="M171.1,329.3L171.1,329.3c0.1-0.2,0.2-0.2,0.4-0.2h0.1v0.4c-0.1,0-0.1,0-0.2,0c-0.3,0-0.3,0.2-0.3,0.4v0.5h-0.5
	v-1.3h0.5V329.3z"/>
<polygon class="st1" points="172.7,330.4 172.3,330.4 172.3,329.5 172.1,329.5 172.1,329.1 172.3,329.1 172.3,328.7 172.7,328.7 
	172.7,329.1 173,329.1 173,329.5 172.7,329.5 "/>
<path class="st1" d="M174.4,329.4c-0.1,0-0.2-0.1-0.2-0.1c-0.1,0-0.1,0-0.1,0.1s0.1,0.1,0.2,0.1c0.2,0,0.4,0.1,0.4,0.4
	s-0.3,0.5-0.6,0.5c-0.2,0-0.4-0.1-0.5-0.1l0.2-0.3c0.1,0.1,0.3,0.1,0.4,0.1c0.1,0,0.1,0,0.1-0.1s-0.1-0.1-0.3-0.1
	c-0.1,0-0.3-0.1-0.3-0.3c0-0.3,0.3-0.5,0.6-0.5c0.1,0,0.3,0,0.4,0.1L174.4,329.4z"/>
<path class="st0" d="M122.9,321.5C122.9,321.5,122.8,321.5,122.9,321.5c-0.2,0.2-0.3,0.2-0.5,0.2c-0.1,0-0.2,0-0.3-0.1
	c-0.1-0.1-0.2-0.1-0.2-0.2c-0.4-0.4-0.9-0.6-1.4-0.6s-1,0.2-1.3,0.5c-0.1,0.1-0.1,0.1-0.1,0.3c0,0.1,0,0.2,0.1,0.2l2.7,0.9
	c0.4,0.1,0.6,0.3,0.8,0.4l0,0c0.1,0.1,0.2,0.3,0.3,0.4c0-0.3,0.1-0.6,0.1-1C122.9,322.1,122.9,321.8,122.9,321.5"/>
<path class="st0" d="M116,321.4c-0.2-0.2-0.4-0.3-0.6-0.4s-0.5-0.2-0.8-0.2s-0.5,0.1-0.8,0.2c-0.2,0.1-0.5,0.2-0.6,0.4
	c-0.2,0.2-0.3,0.4-0.4,0.6s-0.2,0.5-0.2,0.8s0.1,0.5,0.2,0.8c0.1,0.2,0.2,0.5,0.4,0.6c0.2,0.2,0.4,0.3,0.6,0.4s0.5,0.2,0.8,0.2
	s0.5-0.1,0.8-0.2c0.2-0.1,0.5-0.3,0.6-0.4c0.2-0.2,0.3-0.4,0.4-0.6s0.2-0.5,0.2-0.8s-0.1-0.5-0.2-0.8
	C116.3,321.8,116.2,321.5,116,321.4"/>
<path class="st0" d="M107.1,324.6c0.2,0.1,0.5,0.2,0.8,0.2s0.5-0.1,0.8-0.2c0.2-0.1,0.5-0.3,0.6-0.4c0.2-0.2,0.3-0.4,0.4-0.6
	s0.2-0.5,0.2-0.8s-0.1-0.5-0.2-0.8c-0.1-0.2-0.2-0.5-0.4-0.6c-0.2-0.2-0.4-0.3-0.6-0.4s-0.5-0.2-0.8-0.2s-0.5,0.1-0.8,0.2
	c-0.2,0.1-0.5,0.2-0.6,0.4c-0.2,0.2-0.3,0.4-0.4,0.6s-0.2,0.5-0.2,0.8s0.1,0.5,0.2,0.8c0.1,0.2,0.2,0.5,0.4,0.6
	C106.6,324.4,106.8,324.5,107.1,324.6"/>
<path class="st0" d="M122.2,325.5c-0.2,0.2-0.5,0.3-0.8,0.4s-0.6,0.1-0.9,0.1c-1,0-1.8-0.4-2.4-1.1c-0.1-0.1-0.1-0.2-0.1-0.4
	c0-0.2,0.1-0.3,0.2-0.4s0.3-0.2,0.4-0.2s0.2,0,0.3,0.1c0.1,0.1,0.2,0.1,0.2,0.2c0.4,0.4,0.9,0.6,1.4,0.6s1-0.2,1.3-0.5
	c0.1-0.1,0.1-0.1,0.1-0.2s-0.1-0.2-0.2-0.2L119,323c-0.4-0.1-0.6-0.3-0.8-0.4l0,0c-0.3-0.3-0.4-0.6-0.4-1c0-0.3,0.1-0.5,0.2-0.8
	c0.2-0.2,0.4-0.4,0.6-0.6s0.5-0.3,0.8-0.4s0.6-0.1,0.9-0.1c0.9,0,1.6,0.3,2.3,1c-0.9-4.1-4.5-7.1-8.8-7.1c-4.7,0-8.5,3.5-9,8.1
	c0.2-0.4,0.4-0.7,0.7-1c0.6-0.6,1.4-0.9,2.3-0.9c0.8,0,1.4,0.2,2,0.7v-2.8c0-0.2,0.1-0.3,0.2-0.4s0.3-0.2,0.4-0.2
	c0.2,0,0.3,0.1,0.4,0.2s0.2,0.3,0.2,0.4v5.3c0,0.9-0.3,1.6-0.9,2.3c-0.6,0.6-1.4,0.9-2.3,0.9s-1.6-0.3-2.3-0.9
	c-0.2-0.2-0.4-0.5-0.5-0.7c0.9,4.1,4.5,7.2,8.8,7.2c4,0,7.5-2.7,8.6-6.3C122.4,325.3,122.3,325.4,122.2,325.5 M116.9,325
	c-0.3,0.3-0.7,0.5-1,0.7c-0.4,0.2-0.8,0.2-1.2,0.2c-0.8,0-1.4-0.2-2-0.7v2.8c0,0.2-0.1,0.3-0.2,0.4s-0.3,0.2-0.4,0.2
	c-0.2,0-0.3-0.1-0.4-0.2s-0.2-0.3-0.2-0.4v-5.3c0-0.9,0.3-1.6,0.9-2.3c0.6-0.6,1.4-0.9,2.3-0.9s1.6,0.3,2.3,0.9
	c0.3,0.3,0.5,0.7,0.7,1c0.2,0.4,0.2,0.8,0.2,1.2C117.8,323.7,117.5,324.4,116.9,325"/>
<g>
	<g class="st2">
		<g>
			<path class="st3" d="M45.5,61.6c-0.5,0-1,0-1.5,0"/>
			<path class="st4" d="M41,62c-12.1,2.4-28.9,15.9-24.6,42.5c5,31.2,44.3,15.5,32.9,4.2c-5.7-5.7-20.7-1.5-28.3,9
				c-9.6,13.3-15,24.1-16.3,42C2,196.1,29.3,225.4,64.8,213c17.8-6.3,37.4-19.3,60.4-14.5"/>
			<path class="st3" d="M126.7,198.8c0.5,0.1,1,0.2,1.5,0.4"/>
		</g>
	</g>
	<path class="st5" d="M102.3,44.6c0-2-0.2-4-0.6-5.9c-0.3-1.3,0.3-2.7,1.4-3.3l2.7-1.5c1.5-0.8,2-2.7,1.1-4.2l-2.8-4.9
		c-0.8-1.5-2.7-2-4.2-1.1l-2.7,1.5c-1.2,0.7-2.6,0.5-3.6-0.4c-2.9-2.7-6.4-4.7-10.2-5.9c-1.3-0.4-2.2-1.6-2.2-2.9v-3.1
		c0-1.7-1.4-3-3-3h-5.6c-1.7,0-3,1.4-3,3V16c0,1.3-0.9,2.5-2.2,2.9c-3.8,1.2-7.3,3.2-10.2,5.9c-1,0.9-2.4,1.1-3.6,0.4l-2.7-1.5
		c-1.5-0.8-3.3-0.3-4.2,1.1l-2.8,4.9c-0.8,1.5-0.3,3.3,1.1,4.2l2.7,1.5c1.2,0.7,1.7,2,1.4,3.3c-0.4,1.9-0.6,3.9-0.6,5.9
		s0.2,4,0.6,5.9c0.3,1.3-0.3,2.7-1.4,3.3L45,55.3c-1.5,0.8-2,2.7-1.1,4.2l2.8,4.9c0.8,1.5,2.7,2,4.2,1.1l2.7-1.5
		c1.2-0.7,2.6-0.5,3.6,0.4c2.9,2.7,6.4,4.7,10.2,5.9c1.3,0.4,2.2,1.6,2.2,2.9v3.1c0,1.7,1.4,3,3,3h5.6c1.7,0,3-1.4,3-3v-3.1
		c0-1.3,0.9-2.5,2.2-2.9c3.8-1.2,7.3-3.2,10.2-5.9c1-0.9,2.4-1.1,3.6-0.4l2.7,1.5c1.5,0.8,3.3,0.3,4.2-1.1l2.8-4.9
		c0.8-1.5,0.3-3.3-1.1-4.2l-2.7-1.5c-1.2-0.7-1.7-2-1.4-3.3C102.1,48.6,102.3,46.7,102.3,44.6z M75.4,58.4
		c-7.6,0-13.8-6.2-13.8-13.8c0-7.6,6.2-13.8,13.8-13.8S89.2,37,89.2,44.6C89.2,52.2,83,58.4,75.4,58.4z"/>
	<g class="st2">
		<g>
			<path class="st3" d="M94.6,63.8c0.4,0.2,0.8,0.5,1.3,0.7"/>
			<path class="st6" d="M98.7,65.8c8.4,3.5,22.2,5.9,29.4-0.2c8.5-7.2,8.6-23,1.9-31.9c-2.5-3.4-7.5-6-10.7-3.3
				c-2.8,2.4-1.7,7.1,0.9,9.7c5,4.9,13.6,4.1,19.4,0.3c18.9-12.3,34.6-26.7,55.6-31.4c25.8-5.7,47.1,7.1,39.3,25.5
				c-3.5,8.3-7.2,16.7-8.3,25.6c-1.1,8.9,2.7,19.4,11.3,22.1c5.5,1.7,11.3-0.1,16.9-1.5s11.9-2.1,16.5,1.3c4.7,3.5,6.3,10.8,3.6,16
				c-6.4,12.3-37.9,15.7-41.6,30.9"/>
			<path class="st3" d="M232.5,130.4c-0.1,0.5-0.1,1-0.1,1.5"/>
		</g>
	</g>
	<g class="st2">
		<g>
			<g>
				<path class="st7" d="M94.3,187.2H56.4c-2.8,0-5.1-2.3-5.1-5.1v-54.6c0-2.8,2.3-5.1,5.1-5.1h37.9c2.8,0,5.1,2.3,5.1,5.1v54.6
					C99.4,184.9,97.1,187.2,94.3,187.2z"/>
				<path class="st8" d="M94.3,187.2H56.4c-2.8,0-5.1-2.3-5.1-5.1v-54.6c0-2.8,2.3-5.1,5.1-5.1h37.9c2.8,0,5.1,2.3,5.1,5.1v54.6
					C99.4,184.9,97.1,187.2,94.3,187.2z"/>
			</g>
			<g>
				<path class="st7" d="M55.6,122.4h39.6c2.4,0,4.3,1.9,4.3,4.3V183c0,2.4-1.9,4.3-4.3,4.3"/>
				<path class="st8" d="M55.6,122.4h39.6c2.4,0,4.3,1.9,4.3,4.3V183c0,2.4-1.9,4.3-4.3,4.3"/>
			</g>
		</g>
	</g>
	<g class="st2">
		<g>
			<g>
				<rect x="58.9" y="139.8" class="st9" width="28.1" height="2.3"/>
				<rect x="58.9" y="139.8" class="st8" width="28.1" height="2.3"/>
			</g>
			<g>
				<rect x="58.9" y="148.6" class="st9" width="28.1" height="2.3"/>
				<rect x="58.9" y="148.6" class="st8" width="28.1" height="2.3"/>
			</g>
			<g>
				<rect x="58.9" y="157.5" class="st9" width="28.1" height="2.3"/>
				<rect x="58.9" y="157.5" class="st8" width="28.1" height="2.3"/>
			</g>
			<g>
				<rect x="58.9" y="166.4" class="st9" width="28.1" height="2.3"/>
				<rect x="58.9" y="166.4" class="st8" width="28.1" height="2.3"/>
			</g>
			<g>
				<rect x="58.9" y="175.3" class="st9" width="28.1" height="2.3"/>
				<rect x="58.9" y="175.3" class="st8" width="28.1" height="2.3"/>
			</g>
		</g>
	</g>
	<g class="st2">
		<path class="st10" d="M67.7,132h-0.9v-3.7h-1.2v-0.8H69v0.8h-1.2v3.7H67.7z"/>
		<path class="st10" d="M73.7,129.8c0,0.7-0.2,1.3-0.5,1.7c-0.4,0.4-0.9,0.6-1.6,0.6s-1.2-0.2-1.6-0.6c-0.4-0.4-0.5-1-0.5-1.7
			s0.2-1.3,0.6-1.7s0.9-0.6,1.6-0.6s1.2,0.2,1.6,0.6C73.5,128.4,73.7,129,73.7,129.8z M70.4,129.8c0,0.5,0.1,0.9,0.3,1.1
			c0.2,0.3,0.5,0.4,0.8,0.4c0.8,0,1.1-0.5,1.1-1.5s-0.4-1.5-1.1-1.5c-0.4,0-0.7,0.1-0.9,0.4C70.5,128.9,70.4,129.3,70.4,129.8z"/>
		<path class="st10" d="M79.9,129.7c0,0.7-0.2,1.3-0.6,1.7s-1,0.6-1.8,0.6h-1.3v-4.5h1.4c0.7,0,1.3,0.2,1.7,0.6
			C79.7,128.5,79.9,129,79.9,129.7z M78.9,129.7c0-1-0.4-1.4-1.3-1.4h-0.5v2.9h0.4C78.5,131.2,78.9,130.7,78.9,129.7z"/>
		<path class="st10" d="M84.9,129.8c0,0.7-0.2,1.3-0.5,1.7c-0.4,0.4-0.9,0.6-1.6,0.6s-1.2-0.2-1.6-0.6c-0.4-0.4-0.5-1-0.5-1.7
			s0.2-1.3,0.6-1.7s0.9-0.6,1.6-0.6s1.2,0.2,1.6,0.6C84.7,128.4,84.9,129,84.9,129.8z M81.6,129.8c0,0.5,0.1,0.9,0.3,1.1
			c0.2,0.3,0.5,0.4,0.8,0.4c0.8,0,1.1-0.5,1.1-1.5s-0.4-1.5-1.1-1.5c-0.4,0-0.7,0.1-0.9,0.4C81.7,128.9,81.6,129.3,81.6,129.8z"/>
	</g>
	<path class="st11" d="M93.5,143.1H91c-0.5,0-1-0.4-1-1v-2.5c0-0.5,0.4-1,1-1h2.5c0.5,0,1,0.4,1,1v2.5
		C94.5,142.7,94,143.1,93.5,143.1z"/>
	<path class="st11" d="M93.5,152H91c-0.5,0-1-0.4-1-1v-2.5c0-0.5,0.4-1,1-1h2.5c0.5,0,1,0.4,1,1v2.5C94.5,151.6,94,152,93.5,152z"/>
	<path class="st11" d="M93.5,160.9H91c-0.5,0-1-0.4-1-1v-2.5c0-0.5,0.4-1,1-1h2.5c0.5,0,1,0.4,1,1v2.5
		C94.5,160.5,94,160.9,93.5,160.9z"/>
	<path class="st11" d="M93.5,169.8H91c-0.5,0-1-0.4-1-1v-2.5c0-0.5,0.4-1,1-1h2.5c0.5,0,1,0.4,1,1v2.5
		C94.5,169.4,94,169.8,93.5,169.8z"/>
	<path class="st11" d="M93.5,178.7H91c-0.5,0-1-0.4-1-1v-2.5c0-0.5,0.4-1,1-1h2.5c0.5,0,1,0.4,1,1v2.5
		C94.5,178.2,94,178.7,93.5,178.7z"/>
	<g class="st2">
		<path class="st12" d="M203.2,238.7H142c-7.5,0-13.6-6.1-13.6-13.6v-39.3c0-7.5,6.1-13.6,13.6-13.6h61.2c7.5,0,13.6,6.1,13.6,13.6
			v39.3C216.9,232.6,210.7,238.7,203.2,238.7z"/>
	</g>
	<g class="st2">
		<path class="st13" d="M150.3,194.7h-7.7c-0.9,0-1.7-0.8-1.7-1.7v-4.4c0-0.9,0.8-1.7,1.7-1.7h7.7c0.9,0,1.7,0.8,1.7,1.7v4.4
			C152,193.9,151.3,194.7,150.3,194.7z"/>
		<path class="st13" d="M163.4,194.7h-7.7c-0.9,0-1.7-0.8-1.7-1.7v-4.4c0-0.9,0.8-1.7,1.7-1.7h7.7c0.9,0,1.7,0.8,1.7,1.7v4.4
			C165.1,193.9,164.3,194.7,163.4,194.7z"/>
		<path class="st13" d="M176.5,194.7h-7.7c-0.9,0-1.7-0.8-1.7-1.7v-4.4c0-0.9,0.8-1.7,1.7-1.7h7.7c0.9,0,1.7,0.8,1.7,1.7v4.4
			C178.1,193.9,177.4,194.7,176.5,194.7z"/>
		<path class="st13" d="M189.5,194.7h-7.7c-0.9,0-1.7-0.8-1.7-1.7v-4.4c0-0.9,0.8-1.7,1.7-1.7h7.7c0.9,0,1.7,0.8,1.7,1.7v4.4
			C191.2,193.9,190.4,194.7,189.5,194.7z"/>
		<path class="st13" d="M202.6,194.7h-7.7c-0.9,0-1.7-0.8-1.7-1.7v-4.4c0-0.9,0.8-1.7,1.7-1.7h7.7c0.9,0,1.7,0.8,1.7,1.7v4.4
			C204.3,193.9,203.5,194.7,202.6,194.7z"/>
	</g>
	<path class="st14" d="M150.3,205.5h-7.7c-0.9,0-1.7-0.8-1.7-1.7v-4.4c0-0.9,0.8-1.7,1.7-1.7h7.7c0.9,0,1.7,0.8,1.7,1.7v4.4
		C152,204.7,151.3,205.5,150.3,205.5z"/>
	<path class="st14" d="M176.5,205.5h-7.7c-0.9,0-1.7-0.8-1.7-1.7v-4.4c0-0.9,0.8-1.7,1.7-1.7h7.7c0.9,0,1.7,0.8,1.7,1.7v4.4
		C178.1,204.7,177.4,205.5,176.5,205.5z"/>
	<path class="st14" d="M189.5,205.5h-7.7c-0.9,0-1.7-0.8-1.7-1.7v-4.4c0-0.9,0.8-1.7,1.7-1.7h7.7c0.9,0,1.7,0.8,1.7,1.7v4.4
		C191.2,204.7,190.4,205.5,189.5,205.5z"/>
	<path class="st14" d="M202.6,205.5h-7.7c-0.9,0-1.7-0.8-1.7-1.7v-4.4c0-0.9,0.8-1.7,1.7-1.7h7.7c0.9,0,1.7,0.8,1.7,1.7v4.4
		C204.3,204.7,203.5,205.5,202.6,205.5z"/>
	<path class="st14" d="M150.3,216.3h-7.7c-0.9,0-1.7-0.8-1.7-1.7v-4.4c0-0.9,0.8-1.7,1.7-1.7h7.7c0.9,0,1.7,0.8,1.7,1.7v4.4
		C152,215.5,151.3,216.3,150.3,216.3z"/>
	<path class="st14" d="M163.4,216.3h-7.7c-0.9,0-1.7-0.8-1.7-1.7v-4.4c0-0.9,0.8-1.7,1.7-1.7h7.7c0.9,0,1.7,0.8,1.7,1.7v4.4
		C165.1,215.5,164.3,216.3,163.4,216.3z"/>
	<path class="st14" d="M176.5,216.3h-7.7c-0.9,0-1.7-0.8-1.7-1.7v-4.4c0-0.9,0.8-1.7,1.7-1.7h7.7c0.9,0,1.7,0.8,1.7,1.7v4.4
		C178.1,215.5,177.4,216.3,176.5,216.3z"/>
	<path class="st14" d="M202.6,216.3h-7.7c-0.9,0-1.7-0.8-1.7-1.7v-4.4c0-0.9,0.8-1.7,1.7-1.7h7.7c0.9,0,1.7,0.8,1.7,1.7v4.4
		C204.3,215.5,203.5,216.3,202.6,216.3z"/>
	<g class="st2">
		<path class="st13" d="M150.3,227.1h-7.7c-0.9,0-1.7-0.8-1.7-1.7V221c0-0.9,0.8-1.7,1.7-1.7h7.7c0.9,0,1.7,0.8,1.7,1.7v4.4
			C152,226.4,151.3,227.1,150.3,227.1z"/>
		<path class="st13" d="M163.4,227.1h-7.7c-0.9,0-1.7-0.8-1.7-1.7V221c0-0.9,0.8-1.7,1.7-1.7h7.7c0.9,0,1.7,0.8,1.7,1.7v4.4
			C165.1,226.4,164.3,227.1,163.4,227.1z"/>
		<path class="st13" d="M176.5,227.1h-7.7c-0.9,0-1.7-0.8-1.7-1.7V221c0-0.9,0.8-1.7,1.7-1.7h7.7c0.9,0,1.7,0.8,1.7,1.7v4.4
			C178.1,226.4,177.4,227.1,176.5,227.1z"/>
		<path class="st13" d="M189.5,227.1h-7.7c-0.9,0-1.7-0.8-1.7-1.7V221c0-0.9,0.8-1.7,1.7-1.7h7.7c0.9,0,1.7,0.8,1.7,1.7v4.4
			C191.2,226.4,190.4,227.1,189.5,227.1z"/>
		<path class="st13" d="M202.6,227.1h-7.7c-0.9,0-1.7-0.8-1.7-1.7V221c0-0.9,0.8-1.7,1.7-1.7h7.7c0.9,0,1.7,0.8,1.7,1.7v4.4
			C204.3,226.4,203.5,227.1,202.6,227.1z"/>
	</g>
	<g class="st2">
		<path class="st10" d="M174.9,194.3L174.9,194.3l-4.6-4.6c-0.7-0.7-0.7-1.7,0-2.4l0,0l4.6,4.6C175.6,192.6,175.6,193.7,174.9,194.3
			z"/>
		<path class="st10" d="M169.1,193.1L169.1,193.1l4.6-4.6c0.7-0.7,1.7-0.7,2.4,0l0,0l-4.6,4.6C170.9,193.8,169.8,193.8,169.1,193.1z
			"/>
	</g>
	<g class="st2">
		<path class="st10" d="M148.8,215.9L148.8,215.9l-4.6-4.6c-0.7-0.7-0.7-1.7,0-2.4l0,0l4.6,4.6C149.5,214.2,149.5,215.3,148.8,215.9
			z"/>
		<path class="st10" d="M143,214.7L143,214.7l4.6-4.6c0.7-0.7,1.7-0.7,2.4,0l0,0l-4.6,4.6C144.7,215.4,143.7,215.4,143,214.7z"/>
	</g>
	<g class="st2">
		<path class="st10" d="M201.1,226.8L201.1,226.8l-4.6-4.6c-0.7-0.7-0.7-1.7,0-2.4l0,0l4.6,4.6C201.7,225,201.7,226.1,201.1,226.8z"
			/>
		<path class="st10" d="M195.2,225.6L195.2,225.6l4.6-4.6c0.7-0.7,1.7-0.7,2.4,0l0,0l-4.6,4.6C197,226.2,195.9,226.2,195.2,225.6z"
			/>
	</g>
	<g>
		<path class="st15" d="M172.5,75.3h-2.7c-0.5,0-1-0.4-1-1v-4.7c0-0.5,0.4-1,1-1h2.7c0.5,0,1,0.4,1,1v4.7
			C173.4,74.9,173,75.3,172.5,75.3z"/>
		<path class="st15" d="M156,79l-2.3,1.4c-0.5,0.3-1.1,0.1-1.3-0.4l-2.4-4.1c-0.3-0.5-0.1-1.1,0.4-1.3l2.3-1.4
			c0.5-0.3,1.1-0.1,1.3,0.4l2.4,4.1C156.6,78.1,156.5,78.7,156,79z"/>
		<path class="st15" d="M138.5,106.5v2.7c0,0.5-0.4,1-1,1h-4.7c-0.5,0-1-0.4-1-1v-2.7c0-0.5,0.4-1,1-1h4.7
			C138.1,105.6,138.5,106,138.5,106.5z"/>
		<path class="st15" d="M142.2,123l1.4,2.3c0.3,0.5,0.1,1.1-0.4,1.3l-4.1,2.4c-0.5,0.3-1.1,0.1-1.3-0.4l-1.4-2.3
			c-0.3-0.5-0.1-1.1,0.4-1.3l4.1-2.4C141.3,122.4,141.9,122.6,142.2,123z"/>
		<path class="st15" d="M153.6,135.4l2.3,1.4c0.5,0.3,0.6,0.9,0.4,1.3l-2.4,4.1c-0.3,0.5-0.9,0.6-1.3,0.4l-2.3-1.4
			c-0.5-0.3-0.6-0.9-0.4-1.3l2.4-4.1C152.6,135.3,153.2,135.2,153.6,135.4z"/>
		<path class="st15" d="M198.7,125.4l1.4-2.3c0.3-0.5,0.9-0.6,1.3-0.4l4.1,2.4c0.5,0.3,0.6,0.9,0.4,1.3l-1.4,2.3
			c-0.3,0.5-0.9,0.6-1.3,0.4l-4.1-2.4C198.6,126.4,198.4,125.8,198.7,125.4z"/>
		<path class="st15" d="M203.7,109.3v-2.7c0-0.5,0.4-1,1-1h4.7c0.5,0,1,0.4,1,1v2.7c0,0.5-0.4,1-1,1h-4.7
			C204.1,110.2,203.7,109.8,203.7,109.3z"/>
		<path class="st15" d="M200,92.8l-1.4-2.3c-0.3-0.5-0.1-1.1,0.4-1.3l4.1-2.4c0.5-0.3,1.1-0.1,1.3,0.4l1.4,2.3
			c0.3,0.5,0.1,1.1-0.4,1.3l-4.1,2.4C200.9,93.4,200.3,93.2,200,92.8z"/>
		<path class="st15" d="M188.6,80.4l-2.3-1.4c-0.5-0.3-0.6-0.9-0.4-1.3l2.4-4.1c0.3-0.5,0.9-0.6,1.3-0.4l2.3,1.4
			c0.5,0.3,0.6,0.9,0.4,1.3l-2.4,4.1C189.6,80.5,189,80.6,188.6,80.4z"/>
	</g>
	<path class="st16" d="M171.1,65.8c23.2,0,42.1,18.8,42.1,42.1c0,23.2-18.8,42.1-42.1,42.1"/>
	<path class="st16" d="M171.1,54.7c29.4,0,53.3,23.8,53.3,53.3s-23.8,53.3-53.3,53.3"/>
	<polygon class="st17" points="90.8,142.3 90.8,139.5 93.6,139.5 93.6,142.3 	"/>
	<polygon class="st17" points="90.8,151.2 90.8,148.4 93.6,148.4 93.6,151.2 	"/>
	<polygon class="st17" points="90.8,160.1 90.8,157.3 93.6,157.3 93.6,160.1 	"/>
	<path class="st17" d="M163.4,205.5h-7.7c-0.9,0-1.7-0.8-1.7-1.7v-4.4c0-0.9,0.8-1.7,1.7-1.7h7.7c0.9,0,1.7,0.8,1.7,1.7v4.4
		C165.1,204.7,164.3,205.5,163.4,205.5z"/>
	<path class="st17" d="M189.5,216.3h-7.7c-0.9,0-1.7-0.8-1.7-1.7v-4.4c0-0.9,0.8-1.7,1.7-1.7h7.7c0.9,0,1.7,0.8,1.7,1.7v4.4
		C191.2,215.5,190.4,216.3,189.5,216.3z"/>
	<g>
		<path class="st17" d="M171.7,78.5c1.4,5.9,4.7,25.1,0.1,34.9c-0.2,0.5-0.9,0.5-1.2,0c-4.7-9.8-1.3-29,0.1-34.9
			C170.8,78,171.6,78,171.7,78.5z"/>
		<path class="st17" d="M145.5,108.2c5.1-1,23.1-3.3,31.5,0c0.4,0.2,0.4,0.7,0,0.8c-8.4,3.3-26.4,0.9-31.5,0
			C145,108.8,145,108.3,145.5,108.2z"/>
	</g>
	<path class="st17" d="M123.1,82c0-1.6-0.2-3.2-0.5-4.7c-0.2-1,0.2-2.1,1.1-2.6l2.1-1.2c1.2-0.7,1.6-2.1,0.9-3.3l-2.2-3.9
		c-0.7-1.2-2.1-1.6-3.3-0.9l-2.1,1.2c-0.9,0.5-2.1,0.4-2.9-0.3c-2.3-2.1-5-3.7-8.1-4.7c-1-0.3-1.7-1.2-1.7-2.3v-2.5
		c0-1.3-1.1-2.4-2.4-2.4h-4.5c-1.3,0-2.4,1.1-2.4,2.4v2.5c0,1.1-0.7,2-1.7,2.3c-3,1-5.8,2.6-8.1,4.7c-0.8,0.7-1.9,0.9-2.9,0.3
		l-2.1-1.2c-1.2-0.7-2.6-0.3-3.3,0.9l-2.2,3.9c-0.7,1.2-0.3,2.6,0.9,3.3l2.1,1.2c0.9,0.5,1.4,1.6,1.1,2.6c-0.3,1.5-0.5,3.1-0.5,4.7
		c0,1.6,0.2,3.2,0.5,4.7c0.2,1-0.2,2.1-1.1,2.6l-2.1,1.2c-1.2,0.7-1.6,2.1-0.9,3.3l2.2,3.9c0.7,1.2,2.1,1.6,3.3,0.9l2.1-1.2
		c0.9-0.5,2.1-0.4,2.9,0.3c2.3,2.1,5,3.7,8.1,4.7c1,0.3,1.7,1.2,1.7,2.3v2.5c0,1.3,1.1,2.4,2.4,2.4h4.5c1.3,0,2.4-1.1,2.4-2.4v-2.5
		c0-1.1,0.7-2,1.7-2.3c3-1,5.8-2.6,8.1-4.7c0.8-0.7,1.9-0.9,2.9-0.3l2.1,1.2c1.2,0.7,2.6,0.3,3.3-0.9l2.2-3.9
		c0.7-1.2,0.3-2.6-0.9-3.3l-2.1-1.2c-0.9-0.5-1.4-1.6-1.1-2.6C122.9,85.2,123.1,83.6,123.1,82z M101.7,92.9c-6,0-10.9-4.9-10.9-10.9
		s4.9-10.9,10.9-10.9S112.6,76,112.6,82S107.7,92.9,101.7,92.9z"/>
</g>
</svg>
